<svg width="22" height="22" viewBox="0 0 22 22" fill="none" xmlns="http://www.w3.org/2000/svg">
<path d="M3.22222 10.9999H1L11 1L21 10.9999H18.7778M3.22222 10.9999V18.7776C3.22222 19.3669 3.45635 19.9322 3.8731 20.3489C4.28984 20.7657 4.85507 20.9998 5.44444 20.9998H16.5556C17.1449 20.9998 17.7102 20.7657 18.1269 20.3489C18.5437 19.9322 18.7778 19.3669 18.7778 18.7776V10.9999" stroke="#4D4949" stroke-width="2" stroke-linecap="round" stroke-linejoin="round"/>
<path d="M7.6665 21.0001V14.3335C7.6665 13.7442 7.90063 13.1789 8.31738 12.7622C8.73413 12.3455 9.29936 12.1113 9.88873 12.1113H12.1109C12.7003 12.1113 13.2655 12.3455 13.6823 12.7622C14.099 13.1789 14.3332 13.7442 14.3332 14.3335V21.0001" stroke="#4D4949" stroke-width="2" stroke-linecap="round" stroke-linejoin="round"/>
</svg>
