<svg width="20" height="20" viewBox="0 0 20 20" fill="none" xmlns="http://www.w3.org/2000/svg">
<path d="M9.99986 2.5C9.40946 2.49912 8.8378 2.70722 8.38614 3.08744C7.93447 3.46766 7.63193 3.99546 7.53212 4.57736C7.43231 5.15926 7.54166 5.75771 7.84081 6.26671C8.13995 6.77571 8.60958 7.16242 9.16653 7.35834V9.16667H6.66653C6.00349 9.16667 5.3676 9.43006 4.89876 9.8989C4.42992 10.3677 4.16653 11.0036 4.16653 11.6667V12.6417C3.61028 12.8383 3.14145 13.2252 2.8429 13.734C2.54434 14.2429 2.43529 14.8409 2.53502 15.4223C2.63475 16.0038 2.93684 16.5313 3.38789 16.9116C3.83893 17.2918 4.4099 17.5004 4.99986 17.5004C5.58982 17.5004 6.16079 17.2918 6.61184 16.9116C7.06289 16.5313 7.36497 16.0038 7.4647 15.4223C7.56443 14.8409 7.45538 14.2429 7.15683 13.734C6.85827 13.2252 6.38944 12.8383 5.8332 12.6417V11.6667C5.8332 11.4457 5.92099 11.2337 6.07727 11.0774C6.23355 10.9211 6.44551 10.8333 6.66653 10.8333H13.3332C13.5542 10.8333 13.7662 10.9211 13.9225 11.0774C14.0787 11.2337 14.1665 11.4457 14.1665 11.6667V12.6417C13.6103 12.8383 13.1414 13.2252 12.8429 13.734C12.5443 14.2429 12.4353 14.8409 12.535 15.4223C12.6347 16.0038 12.9368 16.5313 13.3879 16.9116C13.8389 17.2918 14.4099 17.5004 14.9999 17.5004C15.5898 17.5004 16.1608 17.2918 16.6118 16.9116C17.0629 16.5313 17.365 16.0038 17.4647 15.4223C17.5644 14.8409 17.4554 14.2429 17.1568 13.734C16.8583 13.2252 16.3894 12.8383 15.8332 12.6417V11.6667C15.8332 11.0036 15.5698 10.3677 15.101 9.8989C14.6321 9.43006 13.9962 9.16667 13.3332 9.16667H10.8332V7.35834C11.3892 7.16155 11.8577 6.7746 12.156 6.26586C12.4543 5.75712 12.5633 5.15932 12.4635 4.57805C12.3638 3.99678 12.0619 3.46945 11.6111 3.08921C11.1603 2.70896 10.5896 2.50027 9.99986 2.5Z" fill="#4D4949"/>
</svg>
