<svg width="20" height="21" viewBox="0 0 20 21" fill="none" xmlns="http://www.w3.org/2000/svg">
<path d="M8.5816 8.60754C10.9585 8.60754 12.8854 6.68068 12.8854 4.30377C12.8854 1.92686 10.9585 0 8.5816 0C6.2047 0 4.27783 1.92686 4.27783 4.30377C4.27783 6.68068 6.2047 8.60754 8.5816 8.60754Z" fill="#4D4949"/>
<path d="M11.3394 16.4746H16.0029V17.4073H11.3394V16.4746Z" fill="#4D4949"/>
<path d="M7.34184 17.8083V19.8069C7.34184 19.9836 7.41204 20.1531 7.53698 20.278C7.66192 20.4029 7.83137 20.4731 8.00806 20.4731H19.3338C19.5105 20.4731 19.6799 20.4029 19.8049 20.278C19.9298 20.1531 20 19.9836 20 19.8069V13.1447C20 12.968 19.9298 12.7986 19.8049 12.6736C19.6799 12.5487 19.5105 12.4785 19.3338 12.4785H14.6702V11.4992C14.6702 11.3225 14.6001 11.153 14.4751 11.0281C14.3502 10.9031 14.1807 10.8329 14.004 10.8329C13.8273 10.8329 13.6579 10.9031 13.5329 11.0281C13.408 11.153 13.3378 11.3225 13.3378 11.4992V12.4785H12.0054V10.0934C10.8733 9.90854 9.72812 9.81497 8.58101 9.81363C6.05125 9.80287 3.54983 10.3464 1.25261 11.4059C0.874517 11.5843 0.555546 11.8675 0.333542 12.2217C0.111538 12.576 -0.00418112 12.9865 0.000115442 13.4046V17.8083H7.34184ZM18.6676 19.1407H8.67428V13.8109H13.3378V14.0908C13.3378 14.2674 13.408 14.4369 13.5329 14.5618C13.6579 14.6868 13.8273 14.757 14.004 14.757C14.1807 14.757 14.3502 14.6868 14.4751 14.5618C14.6001 14.4369 14.6702 14.2674 14.6702 14.0908V13.8109H18.6676V19.1407Z" fill="#4D4949"/>
</svg>
