<svg width="41" height="29" viewBox="0 0 41 29" fill="none" xmlns="http://www.w3.org/2000/svg">
<path d="M0 2.06107C0 0.921785 0.9143 0 2.03975 0H18.4602C19.0012 1.62908e-08 19.52 0.217148 19.9026 0.603673C20.2851 0.990199 20.5 1.51444 20.5 2.06107C20.5 2.6077 20.2851 3.13194 19.9026 3.51847C19.52 3.90499 19.0012 4.12214 18.4602 4.12214H2.03975C1.49877 4.12214 0.979956 3.90499 0.597429 3.51847C0.214902 3.13194 0 2.6077 0 2.06107ZM0 14.5C0 13.3607 0.9143 12.4389 2.03975 12.4389H38.9602C39.5012 12.4389 40.02 12.6561 40.4026 13.0426C40.7851 13.4291 41 13.9534 41 14.5C41 15.0466 40.7851 15.5709 40.4026 15.9574C40.02 16.3439 39.5012 16.5611 38.9602 16.5611H2.03975C1.49877 16.5611 0.979956 16.3439 0.597429 15.9574C0.214902 15.5709 0 15.0466 0 14.5ZM2.03975 24.8779C1.49877 24.8779 0.979956 25.095 0.597429 25.4815C0.214902 25.8681 0 26.3923 0 26.9389C0 27.4856 0.214902 28.0098 0.597429 28.3963C0.979956 28.7829 1.49877 29 2.03975 29H26.6602C27.2012 29 27.72 28.7829 28.1026 28.3963C28.4851 28.0098 28.7 27.4856 28.7 26.9389C28.7 26.3923 28.4851 25.8681 28.1026 25.4815C27.72 25.095 27.2012 24.8779 26.6602 24.8779H2.03975Z" fill="#8A2080"/>
</svg>
