<svg width="19" height="21" viewBox="0 0 19 21" fill="none" xmlns="http://www.w3.org/2000/svg">
<path d="M4.21053 10H12.6316V12H4.21053V10ZM6.31579 18H2.10526V2H9.47368V7H14.7368V10.1L16.8421 8.1V6L10.5263 0H2.10526C1.54691 0 1.01143 0.210714 0.616617 0.585786C0.221804 0.960859 0 1.46957 0 2V18C0 18.5304 0.221804 19.0391 0.616617 19.4142C1.01143 19.7893 1.54691 20 2.10526 20H6.31579V18ZM4.21053 16H8.52632L9.47368 15.1V14H4.21053V16ZM17.0526 11C17.1579 11 17.3684 11.1 17.4737 11.2L18.8421 12.5C19.0526 12.7 19.0526 13.1 18.8421 13.3L17.7895 14.3L15.5789 12.2L16.6316 11.2C16.7368 11.1 16.8421 11 17.0526 11ZM17.0526 14.9L10.6316 21H8.42105V18.9L14.8421 12.8L17.0526 14.9Z" fill="black"/>
</svg>
