<svg width="19" height="20" viewBox="0 0 19 20" fill="none" xmlns="http://www.w3.org/2000/svg">
<path d="M9.08789 12.5C8.99674 12.6953 8.92839 12.8971 8.88281 13.1055C8.83724 13.3138 8.79492 13.5286 8.75586 13.75H2.75V12.5H9.08789ZM2.75 16.25V15H8.73633C8.76888 15.2148 8.81445 15.4264 8.87305 15.6348C8.93164 15.8431 9.00651 16.0482 9.09766 16.25H2.75ZM1.5 18.75H14.6738L15.9141 20H0.25V0H11.1387L16.5 5.36133V10.9082C16.3112 10.7389 16.1126 10.5859 15.9043 10.4492C15.696 10.3125 15.4779 10.1921 15.25 10.0879V6.25H10.25V1.25H1.5V18.75ZM11.5 2.13867V5H14.3613L11.5 2.13867ZM11.7344 10C11.0247 10.2669 10.416 10.6836 9.9082 11.25H2.75V10H11.7344ZM2.75 5H9V6.25H2.75V5ZM14 7.5V8.75H2.75V7.5H14ZM19 19.375C19 19.5443 18.9382 19.6908 18.8145 19.8145C18.6908 19.9382 18.5443 20 18.375 20C18.2057 20 18.0592 19.9382 17.9355 19.8145L15.0938 16.9824C14.8398 17.1517 14.5664 17.2786 14.2734 17.3633C13.9805 17.4479 13.681 17.4935 13.375 17.5C12.9453 17.5 12.5417 17.4186 12.1641 17.2559C11.7865 17.0931 11.4544 16.8717 11.168 16.5918C10.8815 16.3118 10.6569 15.9798 10.4941 15.5957C10.3314 15.2116 10.25 14.8047 10.25 14.375C10.25 13.9453 10.3314 13.5417 10.4941 13.1641C10.6569 12.7865 10.8783 12.4577 11.1582 12.1777C11.4382 11.8978 11.7702 11.6732 12.1543 11.5039C12.5384 11.3346 12.9453 11.25 13.375 11.25C13.8047 11.25 14.2083 11.3314 14.5859 11.4941C14.9635 11.6569 15.2923 11.8815 15.5723 12.168C15.8522 12.4544 16.0768 12.7865 16.2461 13.1641C16.4154 13.5417 16.5 13.9453 16.5 14.375C16.5 14.681 16.4577 14.9805 16.373 15.2734C16.2884 15.5664 16.1582 15.8398 15.9824 16.0938L18.8145 18.9355C18.9382 19.0592 19 19.2057 19 19.375ZM11.5 14.375C11.5 14.6354 11.5488 14.8796 11.6465 15.1074C11.7441 15.3353 11.8776 15.5339 12.0469 15.7031C12.2161 15.8724 12.4147 16.0059 12.6426 16.1035C12.8704 16.2012 13.1146 16.25 13.375 16.25C13.6354 16.25 13.8796 16.2012 14.1074 16.1035C14.3353 16.0059 14.5339 15.8724 14.7031 15.7031C14.8724 15.5339 15.0059 15.3353 15.1035 15.1074C15.2012 14.8796 15.25 14.6354 15.25 14.375C15.25 14.1146 15.2012 13.8704 15.1035 13.6426C15.0059 13.4147 14.8724 13.2161 14.7031 13.0469C14.5339 12.8776 14.3353 12.7441 14.1074 12.6465C13.8796 12.5488 13.6354 12.5 13.375 12.5C13.1146 12.5 12.8704 12.5488 12.6426 12.6465C12.4147 12.7441 12.2161 12.8776 12.0469 13.0469C11.8776 13.2161 11.7441 13.4147 11.6465 13.6426C11.5488 13.8704 11.5 14.1146 11.5 14.375Z" fill="black"/>
</svg>
