<svg width="16" height="20" viewBox="0 0 16 20" fill="none" xmlns="http://www.w3.org/2000/svg">
<path d="M8.72727 0V5C8.72727 5.56832 8.95714 6.11337 9.36631 6.51523C9.77548 6.91709 10.3304 7.14286 10.9091 7.14286H16V17.8571C16 18.4255 15.7701 18.9705 15.361 19.3724C14.9518 19.7742 14.3968 20 13.8182 20H2.18182C1.60316 20 1.04821 19.7742 0.63904 19.3724C0.22987 18.9705 0 18.4255 0 17.8571V2.14286C0 1.57454 0.22987 1.02949 0.63904 0.627628C1.04821 0.225765 1.60316 0 2.18182 0H8.72727ZM10.1818 0.0835715V5C10.1818 5.18944 10.2584 5.37112 10.3948 5.50508C10.5312 5.63903 10.7162 5.71429 10.9091 5.71429H15.9149C15.8128 5.36529 15.6221 5.04748 15.3607 4.79071L11.1222 0.628572C10.8608 0.371563 10.5372 0.184024 10.1818 0.0835715Z" fill="black"/>
</svg>
