<svg width="20" height="20" viewBox="0 0 20 20" fill="none" xmlns="http://www.w3.org/2000/svg">
<path d="M2.85714 0H17.1429C17.9006 0 18.6273 0.210714 19.1632 0.585786C19.699 0.960859 20 1.46957 20 2V18C20 18.5304 19.699 19.0391 19.1632 19.4142C18.6273 19.7893 17.9006 20 17.1429 20H2.85714C2.09938 20 1.37266 19.7893 0.836838 19.4142C0.301019 19.0391 0 18.5304 0 18V2C0 1.46957 0.301019 0.960859 0.836838 0.585786C1.37266 0.210714 2.09938 0 2.85714 0ZM2.85714 2V6H17.1429V2H2.85714ZM2.85714 8V10H5.71429V8H2.85714ZM8.57143 8V10H11.4286V8H8.57143ZM14.2857 8V10H17.1429V8H14.2857ZM2.85714 12V14H5.71429V12H2.85714ZM8.57143 12V14H11.4286V12H8.57143ZM14.2857 12V14H17.1429V12H14.2857ZM2.85714 16V18H5.71429V16H2.85714ZM8.57143 16V18H11.4286V16H8.57143ZM14.2857 16V18H17.1429V16H14.2857Z" fill="black"/>
</svg>
