<svg width="18" height="20" viewBox="0 0 18 20" fill="none" xmlns="http://www.w3.org/2000/svg">
<path d="M7.82736 12.093V19.5349H0C0 17.5612 0.824666 15.6683 2.29258 14.2727C3.7605 12.8771 5.75142 12.093 7.82736 12.093ZM7.82736 11.1628C4.5839 11.1628 1.95684 8.66512 1.95684 5.5814C1.95684 2.49767 4.5839 0 7.82736 0C11.0708 0 13.6979 2.49767 13.6979 5.5814C13.6979 8.66512 11.0708 11.1628 7.82736 11.1628ZM10.3664 16.5684C10.2423 16.0723 10.2423 15.5556 10.3664 15.0595L9.39577 14.5265L10.3742 12.9153L11.3448 13.4484C11.7344 13.0976 12.2053 12.8389 12.7195 12.693V11.6279H14.6763V12.693C15.1968 12.84 15.6665 13.1023 16.051 13.4484L17.0216 12.9153L18 14.5265L17.0304 15.0595C17.1542 15.5556 17.1542 16.0723 17.0304 16.5684L18 17.1014L17.0216 18.7126L16.051 18.1795C15.6614 18.5304 15.1905 18.7891 14.6763 18.9349V20H12.7195V18.9349C12.2053 18.7891 11.7343 18.5304 11.3448 18.1795L10.3742 18.7126L9.39577 17.1014L10.3664 16.5684ZM13.6979 14.8837C13.4384 14.8837 13.1895 14.9817 13.006 15.1562C12.8225 15.3306 12.7195 15.5672 12.7195 15.814C12.7195 16.0607 12.8225 16.2973 13.006 16.4717C13.1895 16.6462 13.4384 16.7442 13.6979 16.7442C13.9574 16.7442 14.2062 16.6462 14.3897 16.4717C14.5732 16.2973 14.6763 16.0607 14.6763 15.814C14.6763 15.5672 14.5732 15.3306 14.3897 15.1562C14.2062 14.9817 13.9574 14.8837 13.6979 14.8837Z" fill="black"/>
</svg>
