<svg width="20" height="20" viewBox="0 0 20 20" fill="none" xmlns="http://www.w3.org/2000/svg">
<path d="M10 0C4.47709 0 0 4.47709 0 10C0 15.5229 4.47709 20 10 20C15.5229 20 20 15.5229 20 10C20 4.47709 15.5229 0 10 0ZM15.7699 9.28994C15.2963 9.83468 14.6732 10.2284 13.9779 10.4224C13.2826 10.6164 12.5456 10.6021 11.8584 10.3812L6.91344 16.0685C6.65913 16.3553 6.30186 16.53 5.91937 16.5547C5.53688 16.5794 5.16011 16.452 4.87105 16.2003C4.58199 15.9486 4.40401 15.593 4.37584 15.2107C4.34768 14.8285 4.4716 14.4506 4.72065 14.1592L9.67318 8.46635C9.37053 7.83549 9.25402 7.13142 9.33732 6.43669C9.42062 5.74196 9.70027 5.08539 10.1435 4.54396C10.5867 4.00253 11.1751 3.59869 11.8397 3.3798C12.5043 3.1609 13.2175 3.13604 13.8957 3.30811L12.0001 5.5181L12.6194 7.32077L14.4929 7.68543L16.3919 5.46993C16.6543 6.10143 16.7353 6.79364 16.6257 7.46865C16.516 8.14367 16.2201 8.77467 15.7713 9.29063L15.7699 9.28994Z" fill="black"/>
</svg>
