<svg width="26" height="22" viewBox="0 0 26 22" fill="none" xmlns="http://www.w3.org/2000/svg">
<path d="M11 3C10.5875 3 10.2344 2.85313 9.94063 2.55938C9.64688 2.26562 9.5 1.9125 9.5 1.5C9.5 1.0875 9.64688 0.734375 9.94063 0.440625C10.2344 0.146875 10.5875 0 11 0C11.4125 0 11.7656 0.146875 12.0594 0.440625C12.3531 0.734375 12.5 1.0875 12.5 1.5C12.5 1.9125 12.3531 2.26562 12.0594 2.55938C11.7656 2.85313 11.4125 3 11 3ZM8 6V4.95C8 4.7375 8.05469 4.54219 8.16406 4.36406C8.27344 4.18594 8.41875 4.05 8.6 3.95625C8.9875 3.7625 9.38125 3.61719 9.78125 3.52031C10.1813 3.42344 10.5875 3.375 11 3.375C11.4125 3.375 11.8187 3.42344 12.2188 3.52031C12.6188 3.61719 13.0125 3.7625 13.4 3.95625C13.5813 4.05 13.7266 4.18594 13.8359 4.36406C13.9453 4.54219 14 4.7375 14 4.95V6H8ZM8.75 5.25H13.25V4.95C13.25 4.88125 13.2328 4.81875 13.1984 4.7625C13.1641 4.70625 13.1188 4.6625 13.0625 4.63125C12.725 4.4625 12.3844 4.33594 12.0406 4.25156C11.6969 4.16719 11.35 4.125 11 4.125C10.65 4.125 10.3031 4.16719 9.95937 4.25156C9.61562 4.33594 9.275 4.4625 8.9375 4.63125C8.88125 4.6625 8.83594 4.70625 8.80156 4.7625C8.76719 4.81875 8.75 4.88125 8.75 4.95V5.25ZM11 2.25C11.2062 2.25 11.3828 2.17656 11.5297 2.02969C11.6766 1.88281 11.75 1.70625 11.75 1.5C11.75 1.29375 11.6766 1.11719 11.5297 0.970313C11.3828 0.823438 11.2062 0.75 11 0.75C10.7938 0.75 10.6172 0.823438 10.4703 0.970313C10.3234 1.11719 10.25 1.29375 10.25 1.5C10.25 1.70625 10.3234 1.88281 10.4703 2.02969C10.6172 2.17656 10.7938 2.25 11 2.25Z" fill="black"/>
<path d="M11 11C10.5875 11 10.2344 10.8531 9.94063 10.5594C9.64688 10.2656 9.5 9.9125 9.5 9.5C9.5 9.0875 9.64688 8.73438 9.94063 8.44063C10.2344 8.14688 10.5875 8 11 8C11.4125 8 11.7656 8.14688 12.0594 8.44063C12.3531 8.73438 12.5 9.0875 12.5 9.5C12.5 9.9125 12.3531 10.2656 12.0594 10.5594C11.7656 10.8531 11.4125 11 11 11ZM8 14V12.95C8 12.7375 8.05469 12.5422 8.16406 12.3641C8.27344 12.1859 8.41875 12.05 8.6 11.9563C8.9875 11.7625 9.38125 11.6172 9.78125 11.5203C10.1813 11.4234 10.5875 11.375 11 11.375C11.4125 11.375 11.8187 11.4234 12.2188 11.5203C12.6188 11.6172 13.0125 11.7625 13.4 11.9563C13.5813 12.05 13.7266 12.1859 13.8359 12.3641C13.9453 12.5422 14 12.7375 14 12.95V14H8ZM8.75 13.25H13.25V12.95C13.25 12.8812 13.2328 12.8187 13.1984 12.7625C13.1641 12.7062 13.1188 12.6625 13.0625 12.6313C12.725 12.4625 12.3844 12.3359 12.0406 12.2516C11.6969 12.1672 11.35 12.125 11 12.125C10.65 12.125 10.3031 12.1672 9.95937 12.2516C9.61562 12.3359 9.275 12.4625 8.9375 12.6313C8.88125 12.6625 8.83594 12.7062 8.80156 12.7625C8.76719 12.8187 8.75 12.8812 8.75 12.95V13.25ZM11 10.25C11.2062 10.25 11.3828 10.1766 11.5297 10.0297C11.6766 9.88281 11.75 9.70625 11.75 9.5C11.75 9.29375 11.6766 9.11719 11.5297 8.97031C11.3828 8.82344 11.2062 8.75 11 8.75C10.7938 8.75 10.6172 8.82344 10.4703 8.97031C10.3234 9.11719 10.25 9.29375 10.25 9.5C10.25 9.70625 10.3234 9.88281 10.4703 10.0297C10.6172 10.1766 10.7938 10.25 11 10.25Z" fill="black"/>
<path d="M11 19C10.5875 19 10.2344 18.8531 9.94063 18.5594C9.64688 18.2656 9.5 17.9125 9.5 17.5C9.5 17.0875 9.64688 16.7344 9.94063 16.4406C10.2344 16.1469 10.5875 16 11 16C11.4125 16 11.7656 16.1469 12.0594 16.4406C12.3531 16.7344 12.5 17.0875 12.5 17.5C12.5 17.9125 12.3531 18.2656 12.0594 18.5594C11.7656 18.8531 11.4125 19 11 19ZM8 22V20.95C8 20.7375 8.05469 20.5422 8.16406 20.3641C8.27344 20.1859 8.41875 20.05 8.6 19.9563C8.9875 19.7625 9.38125 19.6172 9.78125 19.5203C10.1813 19.4234 10.5875 19.375 11 19.375C11.4125 19.375 11.8187 19.4234 12.2188 19.5203C12.6188 19.6172 13.0125 19.7625 13.4 19.9563C13.5813 20.05 13.7266 20.1859 13.8359 20.3641C13.9453 20.5422 14 20.7375 14 20.95V22H8ZM8.75 21.25H13.25V20.95C13.25 20.8812 13.2328 20.8187 13.1984 20.7625C13.1641 20.7062 13.1188 20.6625 13.0625 20.6313C12.725 20.4625 12.3844 20.3359 12.0406 20.2516C11.6969 20.1672 11.35 20.125 11 20.125C10.65 20.125 10.3031 20.1672 9.95937 20.2516C9.61562 20.3359 9.275 20.4625 8.9375 20.6313C8.88125 20.6625 8.83594 20.7062 8.80156 20.7625C8.76719 20.8187 8.75 20.8812 8.75 20.95V21.25ZM11 18.25C11.2062 18.25 11.3828 18.1766 11.5297 18.0297C11.6766 17.8828 11.75 17.7062 11.75 17.5C11.75 17.2938 11.6766 17.1172 11.5297 16.9703C11.3828 16.8234 11.2062 16.75 11 16.75C10.7938 16.75 10.6172 16.8234 10.4703 16.9703C10.3234 17.1172 10.25 17.2938 10.25 17.5C10.25 17.7062 10.3234 17.8828 10.4703 18.0297C10.6172 18.1766 10.7938 18.25 11 18.25Z" fill="black"/>
<line x1="15" y1="2.5" x2="23" y2="2.5" stroke="black"/>
<line x1="15" y1="10.5" x2="23" y2="10.5" stroke="black"/>
<line x1="15" y1="18.5" x2="23" y2="18.5" stroke="black"/>
<line x1="15" y1="4.5" x2="26" y2="4.5" stroke="black"/>
<line x1="15" y1="12.5" x2="26" y2="12.5" stroke="black"/>
<line x1="15" y1="20.5" x2="26" y2="20.5" stroke="black"/>
<path d="M3 6C2.585 6 2.195 5.92125 1.83 5.76375C1.465 5.60625 1.1475 5.3925 0.8775 5.1225C0.6075 4.8525 0.39375 4.535 0.23625 4.17C0.07875 3.805 0 3.415 0 3C0 2.585 0.07875 2.195 0.23625 1.83C0.39375 1.465 0.6075 1.1475 0.8775 0.8775C1.1475 0.6075 1.465 0.39375 1.83 0.23625C2.195 0.07875 2.585 0 3 0C3.325 0 3.6325 0.0475 3.9225 0.1425C4.2125 0.2375 4.48 0.37 4.725 0.54L4.29 0.9825C4.1 0.8625 3.8975 0.76875 3.6825 0.70125C3.4675 0.63375 3.24 0.6 3 0.6C2.335 0.6 1.76875 0.83375 1.30125 1.30125C0.83375 1.76875 0.6 2.335 0.6 3C0.6 3.665 0.83375 4.23125 1.30125 4.69875C1.76875 5.16625 2.335 5.4 3 5.4C3.665 5.4 4.23125 5.16625 4.69875 4.69875C5.16625 4.23125 5.4 3.665 5.4 3C5.4 2.91 5.395 2.82 5.385 2.73C5.375 2.64 5.36 2.5525 5.34 2.4675L5.8275 1.98C5.8825 2.14 5.925 2.305 5.955 2.475C5.985 2.645 6 2.82 6 3C6 3.415 5.92125 3.805 5.76375 4.17C5.60625 4.535 5.3925 4.8525 5.1225 5.1225C4.8525 5.3925 4.535 5.60625 4.17 5.76375C3.805 5.92125 3.415 6 3 6ZM2.58 4.38L1.305 3.105L1.725 2.685L2.58 3.54L5.58 0.5325L6 0.9525L2.58 4.38Z" fill="black"/>
<path d="M3 14C2.585 14 2.195 13.9212 1.83 13.7638C1.465 13.6062 1.1475 13.3925 0.8775 13.1225C0.6075 12.8525 0.39375 12.535 0.23625 12.17C0.07875 11.805 0 11.415 0 11C0 10.585 0.07875 10.195 0.23625 9.83C0.39375 9.465 0.6075 9.1475 0.8775 8.8775C1.1475 8.6075 1.465 8.39375 1.83 8.23625C2.195 8.07875 2.585 8 3 8C3.325 8 3.6325 8.0475 3.9225 8.1425C4.2125 8.2375 4.48 8.37 4.725 8.54L4.29 8.9825C4.1 8.8625 3.8975 8.76875 3.6825 8.70125C3.4675 8.63375 3.24 8.6 3 8.6C2.335 8.6 1.76875 8.83375 1.30125 9.30125C0.83375 9.76875 0.6 10.335 0.6 11C0.6 11.665 0.83375 12.2312 1.30125 12.6988C1.76875 13.1662 2.335 13.4 3 13.4C3.665 13.4 4.23125 13.1662 4.69875 12.6988C5.16625 12.2312 5.4 11.665 5.4 11C5.4 10.91 5.395 10.82 5.385 10.73C5.375 10.64 5.36 10.5525 5.34 10.4675L5.8275 9.98C5.8825 10.14 5.925 10.305 5.955 10.475C5.985 10.645 6 10.82 6 11C6 11.415 5.92125 11.805 5.76375 12.17C5.60625 12.535 5.3925 12.8525 5.1225 13.1225C4.8525 13.3925 4.535 13.6062 4.17 13.7638C3.805 13.9212 3.415 14 3 14ZM2.58 12.38L1.305 11.105L1.725 10.685L2.58 11.54L5.58 8.5325L6 8.9525L2.58 12.38Z" fill="black"/>
<path d="M3 22C2.585 22 2.195 21.9212 1.83 21.7638C1.465 21.6062 1.1475 21.3925 0.8775 21.1225C0.6075 20.8525 0.39375 20.535 0.23625 20.17C0.07875 19.805 0 19.415 0 19C0 18.585 0.07875 18.195 0.23625 17.83C0.39375 17.465 0.6075 17.1475 0.8775 16.8775C1.1475 16.6075 1.465 16.3937 1.83 16.2362C2.195 16.0787 2.585 16 3 16C3.325 16 3.6325 16.0475 3.9225 16.1425C4.2125 16.2375 4.48 16.37 4.725 16.54L4.29 16.9825C4.1 16.8625 3.8975 16.7688 3.6825 16.7012C3.4675 16.6337 3.24 16.6 3 16.6C2.335 16.6 1.76875 16.8338 1.30125 17.3012C0.83375 17.7687 0.6 18.335 0.6 19C0.6 19.665 0.83375 20.2312 1.30125 20.6988C1.76875 21.1662 2.335 21.4 3 21.4C3.665 21.4 4.23125 21.1662 4.69875 20.6988C5.16625 20.2312 5.4 19.665 5.4 19C5.4 18.91 5.395 18.82 5.385 18.73C5.375 18.64 5.36 18.5525 5.34 18.4675L5.8275 17.98C5.8825 18.14 5.925 18.305 5.955 18.475C5.985 18.645 6 18.82 6 19C6 19.415 5.92125 19.805 5.76375 20.17C5.60625 20.535 5.3925 20.8525 5.1225 21.1225C4.8525 21.3925 4.535 21.6062 4.17 21.7638C3.805 21.9212 3.415 22 3 22ZM2.58 20.38L1.305 19.105L1.725 18.685L2.58 19.54L5.58 16.5325L6 16.9525L2.58 20.38Z" fill="black"/>
</svg>
