<svg width="20" height="26" viewBox="0 0 20 26" fill="none" xmlns="http://www.w3.org/2000/svg">
<path d="M17.999 0.00105786C18.2802 0.00105786 18.5406 0.0433721 18.7801 0.128001C19.0197 0.212629 19.228 0.326878 19.405 0.470746C19.5821 0.614615 19.7279 0.788103 19.8425 0.991212C19.957 1.19432 20.0091 1.40589 19.9987 1.62593V24.3741C19.9987 24.6026 19.9466 24.8141 19.8425 25.0088C19.7383 25.2034 19.5977 25.3727 19.4206 25.5166C19.2436 25.6604 19.0301 25.7789 18.7801 25.872C18.5301 25.9651 18.2698 26.0074 17.999 25.9989H2.00104C1.71983 25.9989 1.45945 25.9566 1.21989 25.872C0.980341 25.7874 0.772035 25.6731 0.594975 25.5293C0.417914 25.3854 0.2721 25.2119 0.157532 25.0088C0.0429631 24.8057 -0.0091134 24.5941 0.00130191 24.3741V1.62593C0.00130191 1.39743 0.0533785 1.18586 0.157532 0.991212C0.261685 0.796566 0.402291 0.627309 0.579352 0.48344C0.756412 0.339572 0.969926 0.221092 1.21989 0.128001C1.46986 0.0349093 1.73024 -0.007405 2.00104 0.00105786H17.999ZM17.999 1.62593H2.00104V24.3741H17.999V1.62593Z" fill="black"/>
<rect x="5" y="3" width="2" height="2" fill="black"/>
<rect x="5" y="7" width="2" height="2" fill="black"/>
<rect x="5" y="11" width="2" height="2" fill="black"/>
<rect x="9" y="3" width="2" height="2" fill="black"/>
<rect x="9" y="7" width="2" height="2" fill="black"/>
<rect x="9" y="11" width="2" height="2" fill="black"/>
<rect x="13" y="3" width="2" height="2" fill="black"/>
<rect x="13" y="7" width="2" height="2" fill="black"/>
<rect x="13" y="11" width="2" height="2" fill="black"/>
<rect x="6.5" y="15.5" width="7" height="7" stroke="black"/>
<circle cx="10" cy="19" r="2" fill="black"/>
</svg>
