<svg width="26" height="27" viewBox="0 0 26 27" fill="none" xmlns="http://www.w3.org/2000/svg">
<rect x="0.225586" y="0.199219" width="25.7201" height="26.2137" rx="5" fill="white"/>
<path d="M14.1572 17.675V18.7672C14.1572 19.6362 13.8184 20.4697 13.2155 21.0842C12.6126 21.6987 11.7948 22.0439 10.9421 22.0439H6.65545C5.80277 22.0439 4.98502 21.6987 4.38209 21.0842C3.77915 20.4697 3.44043 19.6362 3.44043 18.7672V7.84483C3.44043 6.97579 3.77915 6.14234 4.38209 5.52784C4.98502 4.91334 5.80277 4.56812 6.65545 4.56812H10.9421C11.7948 4.56812 12.6126 4.91334 13.2155 5.52784C13.8184 6.14234 14.1572 6.97579 14.1572 7.84483V8.93706M18.4438 17.675L22.7305 13.306L18.4438 17.675ZM22.7305 13.306L18.4438 8.93706L22.7305 13.306ZM22.7305 13.306H7.72712H22.7305Z" stroke="#253D4E" stroke-width="2" stroke-linecap="round" stroke-linejoin="round"/>
</svg>
