<svg width="22" height="22" viewBox="0 0 22 22" fill="none" xmlns="http://www.w3.org/2000/svg">
<path d="M3.22222 10.9999H1L11 1L21 10.9999H18.7778M3.22222 10.9999V18.7776C3.22222 19.3669 3.45635 19.9322 3.8731 20.3489C4.28984 20.7657 4.85507 20.9998 5.44444 20.9998H16.5556C17.1449 20.9998 17.7102 20.7657 18.1269 20.3489C18.5437 19.9322 18.7778 19.3669 18.7778 18.7776V10.9999" stroke="black" stroke-width="2" stroke-linecap="round" stroke-linejoin="round"/>
<path d="M7.66406 21.0001V14.3335C7.66406 13.7442 7.89819 13.1789 8.31494 12.7622C8.73168 12.3455 9.29691 12.1113 9.88628 12.1113H12.1085C12.6979 12.1113 13.2631 12.3455 13.6799 12.7622C14.0966 13.1789 14.3307 13.7442 14.3307 14.3335V21.0001" stroke="black" stroke-width="2" stroke-linecap="round" stroke-linejoin="round"/>
</svg>
