<svg width="27" height="27" viewBox="0 0 27 27" fill="none" xmlns="http://www.w3.org/2000/svg">
<path d="M13.0986 0.5C5.90963 0.5 0.0986328 6.311 0.0986328 13.5C0.0986328 20.689 5.90963 26.5 13.0986 26.5C20.2876 26.5 26.0986 20.689 26.0986 13.5C26.0986 6.311 20.2876 0.5 13.0986 0.5ZM13.0986 23.9C7.36563 23.9 2.69863 19.233 2.69863 13.5C2.69863 7.767 7.36563 3.1 13.0986 3.1C18.8316 3.1 23.4986 7.767 23.4986 13.5C23.4986 19.233 18.8316 23.9 13.0986 23.9ZM17.7656 7L13.0986 11.667L8.43163 7L6.59863 8.833L11.2656 13.5L6.59863 18.167L8.43163 20L13.0986 15.333L17.7656 20L19.5986 18.167L14.9316 13.5L19.5986 8.833L17.7656 7Z" fill="#FF0000"/>
</svg>
