<svg width="20" height="20" viewBox="0 0 20 20" fill="none" xmlns="http://www.w3.org/2000/svg">
<path d="M10.0008 2.5C9.41044 2.49912 8.83878 2.70722 8.38711 3.08744C7.93544 3.46766 7.63291 3.99546 7.5331 4.57736C7.43329 5.15926 7.54264 5.75771 7.84178 6.26671C8.14093 6.77571 8.61056 7.16242 9.1675 7.35834V9.16667H6.6675C6.00446 9.16667 5.36858 9.43006 4.89974 9.8989C4.4309 10.3677 4.16751 11.0036 4.16751 11.6667V12.6417C3.61126 12.8383 3.14243 13.2252 2.84387 13.734C2.54532 14.2429 2.43627 14.8409 2.536 15.4223C2.63573 16.0038 2.93781 16.5313 3.38886 16.9116C3.83991 17.2918 4.41088 17.5004 5.00084 17.5004C5.5908 17.5004 6.16177 17.2918 6.61281 16.9116C7.06386 16.5313 7.36595 16.0038 7.46568 15.4223C7.56541 14.8409 7.45636 14.2429 7.1578 13.734C6.85925 13.2252 6.39042 12.8383 5.83417 12.6417V11.6667C5.83417 11.4457 5.92197 11.2337 6.07825 11.0774C6.23453 10.9211 6.44649 10.8333 6.6675 10.8333H13.3342C13.5552 10.8333 13.7671 10.9211 13.9234 11.0774C14.0797 11.2337 14.1675 11.4457 14.1675 11.6667V12.6417C13.6113 12.8383 13.1424 13.2252 12.8439 13.734C12.5453 14.2429 12.4363 14.8409 12.536 15.4223C12.6357 16.0038 12.9378 16.5313 13.3889 16.9116C13.8399 17.2918 14.4109 17.5004 15.0008 17.5004C15.5908 17.5004 16.1618 17.2918 16.6128 16.9116C17.0639 16.5313 17.366 16.0038 17.4657 15.4223C17.5654 14.8409 17.4564 14.2429 17.1578 13.734C16.8593 13.2252 16.3904 12.8383 15.8342 12.6417V11.6667C15.8342 11.0036 15.5708 10.3677 15.1019 9.8989C14.6331 9.43006 13.9972 9.16667 13.3342 9.16667H10.8342V7.35834C11.3901 7.16155 11.8586 6.7746 12.157 6.26586C12.4553 5.75712 12.5642 5.15932 12.4645 4.57805C12.3648 3.99678 12.0629 3.46945 11.6121 3.08921C11.1613 2.70896 10.5906 2.50027 10.0008 2.5Z" fill="black"/>
</svg>
