<svg width="23" height="37" viewBox="0 0 23 37" fill="none" xmlns="http://www.w3.org/2000/svg">
<path d="M0.5 4.625C0.5 3.39837 0.96357 2.22199 1.78873 1.35463C2.61389 0.487275 3.73305 0 4.9 0L18.1 0C19.267 0 20.3861 0.487275 21.2113 1.35463C22.0364 2.22199 22.5 3.39837 22.5 4.625V32.375C22.5 33.6016 22.0364 34.778 21.2113 35.6454C20.3861 36.5127 19.267 37 18.1 37H4.9C3.73305 37 2.61389 36.5127 1.78873 35.6454C0.96357 34.778 0.5 33.6016 0.5 32.375V4.625ZM13.7 30.0625C13.7 29.4492 13.4682 28.861 13.0556 28.4273C12.6431 27.9936 12.0835 27.75 11.5 27.75C10.9165 27.75 10.3569 27.9936 9.94437 28.4273C9.53179 28.861 9.3 29.4492 9.3 30.0625C9.3 30.6758 9.53179 31.264 9.94437 31.6977C10.3569 32.1314 10.9165 32.375 11.5 32.375C12.0835 32.375 12.6431 32.1314 13.0556 31.6977C13.4682 31.264 13.7 30.6758 13.7 30.0625Z" fill="black"/>
</svg>
