<svg width="20" height="14" viewBox="0 0 20 14" fill="none" xmlns="http://www.w3.org/2000/svg">
<path d="M10.07 3.915C9.37778 3.915 8.71392 4.18998 8.22445 4.67945C7.73498 5.16892 7.46 5.83279 7.46 6.525C7.46 7.21722 7.73498 7.88108 8.22445 8.37055C8.71392 8.86002 9.37778 9.135 10.07 9.135C10.7622 9.135 11.4261 8.86002 11.9155 8.37055C12.405 7.88108 12.68 7.21722 12.68 6.525C12.68 5.83279 12.405 5.16892 11.9155 4.67945C11.4261 4.18998 10.7622 3.915 10.07 3.915ZM10.07 10.875C8.91631 10.875 7.80987 10.4167 6.99409 9.60091C6.1783 8.78513 5.72 7.67869 5.72 6.525C5.72 5.37131 6.1783 4.26487 6.99409 3.44909C7.80987 2.6333 8.91631 2.175 10.07 2.175C11.2237 2.175 12.3301 2.6333 13.1459 3.44909C13.9617 4.26487 14.42 5.37131 14.42 6.525C14.42 7.67869 13.9617 8.78513 13.1459 9.60091C12.3301 10.4167 11.2237 10.875 10.07 10.875ZM10.07 0C5.72 0 2.0051 2.7057 0.5 6.525C2.0051 10.3443 5.72 13.05 10.07 13.05C14.42 13.05 18.1349 10.3443 19.64 6.525C18.1349 2.7057 14.42 0 10.07 0Z" fill="#676B70"/>
</svg>
