<svg width="20" height="17" viewBox="0 0 20 17" fill="none" xmlns="http://www.w3.org/2000/svg">
<path d="M17.5 5.95238H18.75V16.6667H17.5V5.95238ZM5 10.119L6.25 8.92857V16.6667H5V10.119ZM2.5 12.5L3.75 11.3095V16.6667H2.5V12.5ZM7.5 7.7381L8.75 6.54762V16.6667H7.5V7.7381ZM10 6.54762L11.25 7.7381V16.6574H10V6.54762ZM13.125 9.52381L13.75 8.92857V16.6667H12.5V8.92857L13.125 9.52381ZM15 7.7381L16.25 6.54762V16.6667H15V7.7381ZM0 14.881L1.25 13.6905V16.6667H0V14.881ZM20 0V4.7619H18.75V2.03683L13.125 7.38467L9.375 3.81324L0 12.7511V11.0584L9.375 2.13914L13.125 5.71057L17.8613 1.19048H15V0H20Z" fill="#8A2080"/>
</svg>
