<svg width="26" height="26" viewBox="0 0 26 26" fill="none" xmlns="http://www.w3.org/2000/svg">
<circle cx="13" cy="13" r="13" fill="#7B7B7B"/>
<mask id="mask0_2_268" style="mask-type:alpha" maskUnits="userSpaceOnUse" x="1" y="1" width="24" height="24">
<circle cx="13" cy="13" r="11.5" fill="#D9D9D9" stroke="black"/>
</mask>
<g mask="url(#mask0_2_268)">
<path d="M-9 -1H35.1818V26H-9V-1Z" fill="#5C9E31"/>
<path d="M-9 -1H35.1818V8.81818H-9V-1Z" fill="#E27022"/>
<path d="M-9 8.81824H35.1818V16.1819H-9V8.81824Z" fill="white"/>
<path d="M13.2719 11.823L14.3176 10.3748L13.5861 12.0046L15.2159 11.2732L13.7677 12.3188L15.5448 12.5004L13.7677 12.6821L15.2159 13.7277L13.5861 12.9963L14.3176 14.6261L13.2719 13.1779L13.0903 14.955L12.9087 13.1779L11.863 14.6261L12.5945 12.9963L10.9647 13.7277L12.4128 12.6821L10.6357 12.5004L12.4128 12.3188L10.9647 11.2732L12.5945 12.0046L11.863 10.3748L12.9087 11.823L13.0903 10.0459L13.2719 11.823Z" stroke="#1E50A0" stroke-linecap="round" stroke-linejoin="round"/>
<path d="M13.09 16.182C15.1234 16.182 16.7718 14.5336 16.7718 12.5002C16.7718 10.4668 15.1234 8.81836 13.09 8.81836C11.0566 8.81836 9.4082 10.4668 9.4082 12.5002C9.4082 14.5336 11.0566 16.182 13.09 16.182Z" stroke="#1E50A0" stroke-linecap="round" stroke-linejoin="round"/>
<path d="M-9 -1H35.1818V26H-9V-1Z" stroke="#7B7B7B" stroke-width="2" stroke-linecap="round" stroke-linejoin="round"/>
</g>
</svg>
