<svg width="33" height="35" viewBox="0 0 33 35" fill="none" xmlns="http://www.w3.org/2000/svg">
<path d="M14.7314 0V3.04169C16.1866 3.46592 17.497 4.21567 18.5699 5.21089L21.2699 3.69005L24 8.30861L21.2972 9.8348C21.6433 11.2585 21.6433 12.7415 21.2972 14.1652L24 15.6887L21.2699 20.31L18.5617 18.7838C17.4758 19.7874 16.1638 20.5277 14.7314 20.945V24H9.2713V20.945C7.83803 20.528 6.52508 19.7877 5.43829 18.7838L2.73006 20.31L0 15.6887L2.70276 14.1625C2.35653 12.7398 2.35653 11.2575 2.70276 9.8348L0 8.31128L2.73006 3.69005L5.43283 5.21089C6.5204 4.20344 7.83535 3.46033 9.2713 3.04169V0H14.7314ZM12.0014 7.9911C10.9153 7.9911 9.87367 8.41277 9.10569 9.16333C8.33772 9.91389 7.90627 10.9319 7.90627 11.9933C7.90627 13.0548 8.33772 14.0728 9.10569 14.8233C9.87367 15.5739 10.9153 15.9956 12.0014 15.9956C13.0875 15.9956 14.1291 15.5739 14.897 14.8233C15.665 14.0728 16.0965 13.0548 16.0965 11.9933C16.0965 10.9319 15.665 9.91389 14.897 9.16333C14.1291 8.41277 13.0875 7.9911 12.0014 7.9911Z" fill="black"/>
<path d="M26.821 19V21.0278C27.791 21.3106 28.6647 21.8104 29.3799 22.4739L31.18 21.46L33 24.5391L31.1982 25.5565C31.4289 26.5056 31.4289 27.4944 31.1982 28.4435L33 29.4591L31.18 32.54L29.3745 31.5225C28.6505 32.1916 27.7758 32.6851 26.821 32.9633V35H23.1809V32.9633C22.2254 32.6853 21.3501 32.1918 20.6255 31.5225L18.82 32.54L17 29.4591L18.8018 28.4417C18.571 27.4932 18.571 26.505 18.8018 25.5565L17 24.5409L18.82 21.46L20.6219 22.4739C21.3469 21.8023 22.2236 21.3069 23.1809 21.0278V19H26.821ZM25.0009 24.3274C24.2769 24.3274 23.5824 24.6085 23.0705 25.1089C22.5585 25.6093 22.2708 26.2879 22.2708 26.9956C22.2708 27.7032 22.5585 28.3818 23.0705 28.8822C23.5824 29.3826 24.2769 29.6637 25.0009 29.6637C25.725 29.6637 26.4194 29.3826 26.9314 28.8822C27.4433 28.3818 27.731 27.7032 27.731 26.9956C27.731 26.2879 27.4433 25.6093 26.9314 25.1089C26.4194 24.6085 25.725 24.3274 25.0009 24.3274Z" fill="black"/>
</svg>
