<svg width="38" height="33" viewBox="0 0 38 33" fill="none" xmlns="http://www.w3.org/2000/svg">
<path d="M17.1867 0V3.54864C18.8843 4.04358 20.4131 4.91828 21.6649 6.07937L24.8149 4.30506L28 9.69338L24.8468 11.4739C25.2505 13.1349 25.2505 14.8651 24.8468 16.5261L28 18.3035L24.8149 23.6949L21.6553 21.9144C20.3884 23.0853 18.8577 23.949 17.1867 24.4358V28H10.8165V24.4358C9.14437 23.9493 7.61259 23.0856 6.34467 21.9144L3.18508 23.6949L0 18.3035L3.15322 16.523C2.74928 14.8631 2.74928 13.1338 3.15322 11.4739L0 9.6965L3.18508 4.30506L6.3383 6.07937C7.60713 4.90401 9.14125 4.03705 10.8165 3.54864V0H17.1867ZM14.0016 9.32295C12.7345 9.32295 11.5193 9.81489 10.6233 10.6905C9.72733 11.5662 9.22398 12.7539 9.22398 13.9922C9.22398 15.2306 9.72733 16.4182 10.6233 17.2939C11.5193 18.1695 12.7345 18.6615 14.0016 18.6615C15.2687 18.6615 16.4839 18.1695 17.3799 17.2939C18.2758 16.4182 18.7792 15.2306 18.7792 13.9922C18.7792 12.7539 18.2758 11.5662 17.3799 10.6905C16.4839 9.81489 15.2687 9.32295 14.0016 9.32295Z" fill="black"/>
<path d="M37.0402 14.7855C37.0111 14.5993 36.9431 14.4213 36.8407 14.263C36.7384 14.1047 36.6038 13.9698 36.4459 13.8668L32.8117 17.3058C32.642 17.4724 32.4405 17.6031 32.2191 17.6901C31.9978 17.777 31.7612 17.8185 31.5235 17.812C31.2857 17.8055 31.0517 17.7511 30.8355 17.6521C30.6192 17.5532 30.4252 17.4117 30.2649 17.236L28.9537 15.9969C28.6387 15.6576 28.4694 15.2083 28.4821 14.7455C28.4947 14.2827 28.6884 13.8434 29.0216 13.5218L32.6557 10.0828C32.5836 9.89949 32.472 9.73432 32.3289 9.59893C32.1858 9.46353 32.0147 9.36123 31.8276 9.29925C30.6002 9.01938 29.3188 9.08965 28.1294 9.50205C26.9399 9.91445 25.8902 10.6524 25.0998 11.6319C24.3093 12.6114 23.8099 13.7931 23.6583 15.0425C23.5067 16.2918 23.7091 17.5587 24.2424 18.6987L14.3235 27.9988C14.1505 28.1588 14.0113 28.3518 13.9139 28.5663C13.8166 28.7809 13.7631 29.0128 13.7567 29.2483C13.7502 29.4838 13.7909 29.7182 13.8763 29.9378C13.9618 30.1574 14.0902 30.3577 14.2542 30.527L14.8734 31.1809C15.0335 31.3538 15.2266 31.493 15.4412 31.5903C15.6559 31.6876 15.8878 31.7411 16.1234 31.7475C16.359 31.754 16.5935 31.7133 16.8132 31.6279C17.0328 31.5425 17.2332 31.4141 17.4025 31.2503L27.3234 21.8795C28.4339 22.4462 29.68 22.694 30.923 22.5951C32.166 22.4963 33.3572 22.0548 34.3642 21.3196C35.3711 20.5845 36.1544 19.5845 36.6268 18.431C37.0992 17.2774 37.2423 16.0155 37.0402 14.7855Z" fill="black" stroke="white" stroke-linecap="round" stroke-linejoin="round"/>
</svg>
