<svg width="24" height="26" viewBox="0 0 24 26" fill="none" xmlns="http://www.w3.org/2000/svg">
<path d="M5.30435 15.1702H18.6957M12 15.1702V25M6.73913 12.8298V8.61702H5.61809C4.98107 8.61703 4.36217 8.82448 3.85891 9.2067C3.35564 9.58891 2.99663 10.1242 2.83843 10.7281L1 17.7447V17.9787H7.69565V19.383C7.69565 20.7872 7.69565 21.7234 8.41304 23.1277C8.41304 23.1277 9.13043 24.5319 10.087 24.5319M17.2609 12.8298V8.61702H18.3819C19.0189 8.61703 19.6378 8.82448 20.1411 9.2067C20.6444 9.58891 21.0034 10.1242 21.1616 10.7281L23 17.7447V17.9787H16.3043V19.383C16.3043 20.7872 16.3043 21.7234 15.587 23.1277C15.587 23.1277 14.8696 24.5319 13.913 24.5319M6.59565 6.74468C6.59565 6.74468 5.06522 5.80851 5.06522 4.6383C5.06522 4.20429 5.24137 3.78806 5.55493 3.48117C5.8685 3.17428 6.29378 3.00187 6.73722 3.00187C7.18066 3.00187 7.60594 3.17428 7.9195 3.48117C8.23306 3.78806 8.40922 4.20429 8.40922 4.6383C8.40922 5.80851 6.88261 6.74468 6.88261 6.74468H6.59565ZM17.4043 6.74468C17.4043 6.74468 18.9348 5.80851 18.9348 4.6383C18.9348 4.20379 18.7584 3.78709 18.4445 3.47985C18.1306 3.17261 17.7048 3 17.2609 3C16.3369 3 15.5908 3.73396 15.5908 4.6383C15.5908 5.80851 17.1174 6.74468 17.1174 6.74468H17.4043Z" stroke="black"/>
<line x1="1.5" y1="19" x2="1.5" y2="26" stroke="black"/>
<line x1="22.5" y1="19" x2="22.5" y2="26" stroke="black"/>
<line x1="23" y1="25.5" x2="16" y2="25.5" stroke="black"/>
<line x1="9" y1="25.5" x2="2" y2="25.5" stroke="black"/>
<path d="M11 3C10.7242 3 10.4886 2.90156 10.2932 2.70469C10.0977 2.50781 10 2.26719 10 1.98281C10 1.73906 10.0712 1.52188 10.2136 1.33125C10.3561 1.14062 10.5424 1.01875 10.7727 0.965625C10.8485 0.678125 11 0.445313 11.2273 0.267188C11.4545 0.0890625 11.7121 0 12 0C12.3545 0 12.6553 0.127344 12.9023 0.382031C13.1492 0.636719 13.2727 0.946875 13.2727 1.3125C13.4818 1.3375 13.6553 1.43047 13.7932 1.59141C13.9311 1.75234 14 1.94063 14 2.15625C14 2.39062 13.9205 2.58984 13.7614 2.75391C13.6023 2.91797 13.4091 3 13.1818 3H11ZM11 2.625H13.1818C13.3091 2.625 13.4167 2.57969 13.5045 2.48906C13.5924 2.39844 13.6364 2.2875 13.6364 2.15625C13.6364 2.025 13.5924 1.91406 13.5045 1.82344C13.4167 1.73281 13.3091 1.6875 13.1818 1.6875H12.9091V1.3125C12.9091 1.05313 12.8205 0.832031 12.6432 0.649219C12.4659 0.466406 12.2515 0.375 12 0.375C11.7485 0.375 11.5341 0.466406 11.3568 0.649219C11.1795 0.832031 11.0909 1.05313 11.0909 1.3125H11C10.8242 1.3125 10.6742 1.37656 10.55 1.50469C10.4258 1.63281 10.3636 1.7875 10.3636 1.96875C10.3636 2.15 10.4258 2.30469 10.55 2.43281C10.6742 2.56094 10.8242 2.625 11 2.625Z" fill="black"/>
</svg>
