<svg width="20" height="21" viewBox="0 0 20 21" fill="none" xmlns="http://www.w3.org/2000/svg">
<path fill-rule="evenodd" clip-rule="evenodd" d="M15.2575 6.00377C15.5159 5.78853 15.8492 5.68472 16.1842 5.71517C16.5191 5.74562 16.8283 5.90784 17.0437 6.16615L19.6862 9.33769C19.892 9.59713 19.9883 9.92678 19.9543 10.2562C19.9204 10.5857 19.759 10.8888 19.5046 11.1008C19.2501 11.3128 18.9229 11.4169 18.5927 11.3909C18.2626 11.3649 17.9557 11.2108 17.7376 10.9615L15.0951 7.78998C14.8798 7.53154 14.776 7.19821 14.8065 6.86326C14.8369 6.52831 14.9991 6.21916 15.2575 6.00377Z" fill="#4C4949"/>
<path fill-rule="evenodd" clip-rule="evenodd" d="M15.2577 14.2953C14.9992 14.0801 14.8368 13.771 14.8061 13.436C14.7754 13.1011 14.879 12.7677 15.0941 12.5091L17.7379 9.33751C17.843 9.205 17.9736 9.09485 18.1219 9.01355C18.2703 8.93225 18.4334 8.88144 18.6016 8.8641C18.7699 8.84677 18.9399 8.86326 19.1018 8.91261C19.2636 8.96196 19.4138 9.04317 19.5438 9.15146C19.6738 9.25975 19.7807 9.39294 19.8585 9.54319C19.9362 9.69344 19.9831 9.85772 19.9963 10.0264C20.0096 10.195 19.9891 10.3646 19.9359 10.5252C19.8826 10.6857 19.7978 10.834 19.6865 10.9613L17.0439 14.1329C16.8285 14.3912 16.5194 14.5534 16.1844 14.5839C15.8495 14.6143 15.5162 14.5105 15.2577 14.2953Z" fill="#4C4949"/>
<path fill-rule="evenodd" clip-rule="evenodd" d="M18.3949 10.1489C18.3949 10.4854 18.2613 10.8081 18.0234 11.046C17.7854 11.2839 17.4628 11.4175 17.1263 11.4175H8.88031C8.54385 11.4175 8.22118 11.2839 7.98326 11.046C7.74535 10.8081 7.61169 10.4854 7.61169 10.1489C7.61169 9.81247 7.74535 9.48979 7.98326 9.25188C8.22118 9.01397 8.54385 8.88031 8.88031 8.88031H17.1263C17.4628 8.88031 17.7854 9.01397 18.0234 9.25188C18.2613 9.48979 18.3949 9.81247 18.3949 10.1489ZM0 1.26862C0 0.932158 0.133657 0.60948 0.371569 0.371569C0.609481 0.133657 0.932158 0 1.26862 0H12.6862C13.0226 0 13.3453 0.133657 13.5832 0.371569C13.8211 0.60948 13.9548 0.932158 13.9548 1.26862C13.9548 1.60507 13.8211 1.92775 13.5832 2.16566C13.3453 2.40357 13.0226 2.53723 12.6862 2.53723H1.26862C0.932158 2.53723 0.609481 2.40357 0.371569 2.16566C0.133657 1.92775 0 1.60507 0 1.26862ZM0 19.0292C0 18.6928 0.133657 18.3701 0.371569 18.1322C0.609481 17.8943 0.932158 17.7606 1.26862 17.7606H12.6862C13.0226 17.7606 13.3453 17.8943 13.5832 18.1322C13.8211 18.3701 13.9548 18.6928 13.9548 19.0292C13.9548 19.3657 13.8211 19.6884 13.5832 19.9263C13.3453 20.1642 13.0226 20.2978 12.6862 20.2978H1.26862C0.932158 20.2978 0.609481 20.1642 0.371569 19.9263C0.133657 19.6884 0 19.3657 0 19.0292Z" fill="#4C4949"/>
<path fill-rule="evenodd" clip-rule="evenodd" d="M12.6862 0C13.0226 0 13.3453 0.133657 13.5832 0.371569C13.8211 0.60948 13.9548 0.932158 13.9548 1.26862V6.34308C13.9548 6.67954 13.8211 7.00221 13.5832 7.24012C13.3453 7.47804 13.0226 7.61169 12.6862 7.61169C12.3497 7.61169 12.027 7.47804 11.7891 7.24012C11.5512 7.00221 11.4175 6.67954 11.4175 6.34308V1.26862C11.4175 0.932158 11.5512 0.60948 11.7891 0.371569C12.027 0.133657 12.3497 0 12.6862 0ZM12.6862 12.6862C13.0226 12.6862 13.3453 12.8198 13.5832 13.0577C13.8211 13.2956 13.9548 13.6183 13.9548 13.9548V19.0292C13.9548 19.3657 13.8211 19.6884 13.5832 19.9263C13.3453 20.1642 13.0226 20.2978 12.6862 20.2978C12.3497 20.2978 12.027 20.1642 11.7891 19.9263C11.5512 19.6884 11.4175 19.3657 11.4175 19.0292V13.9548C11.4175 13.6183 11.5512 13.2956 11.7891 13.0577C12.027 12.8198 12.3497 12.6862 12.6862 12.6862ZM1.26862 0C1.60507 0 1.92775 0.133657 2.16566 0.371569C2.40357 0.60948 2.53723 0.932158 2.53723 1.26862V19.0292C2.53723 19.3657 2.40357 19.6884 2.16566 19.9263C1.92775 20.1642 1.60507 20.2978 1.26862 20.2978C0.932158 20.2978 0.60948 20.1642 0.371569 19.9263C0.133657 19.6884 0 19.3657 0 19.0292V1.26862C0 0.932158 0.133657 0.60948 0.371569 0.371569C0.60948 0.133657 0.932158 0 1.26862 0Z" fill="#4C4949"/>
</svg>
