<svg width="25" height="24" viewBox="0 0 25 24" fill="none" xmlns="http://www.w3.org/2000/svg">
<path d="M2 20C1.45 20 0.979167 19.8042 0.5875 19.4125C0.195833 19.0208 0 18.55 0 18V4C0 3.45 0.195833 2.97917 0.5875 2.5875C0.979167 2.19583 1.45 2 2 2H6.2C6.41667 1.4 6.77917 0.916667 7.2875 0.55C7.79583 0.183333 8.36667 0 9 0C9.63333 0 10.2042 0.183333 10.7125 0.55C11.2208 0.916667 11.5833 1.4 11.8 2H16C16.55 2 17.0208 2.19583 17.4125 2.5875C17.8042 2.97917 18 3.45 18 4V10.125C17.6667 10.0417 17.3333 10 17 10C16.6667 10 16.3333 10.025 16 10.075V4H2V18H9C8.95 18.3333 8.85 18.6667 8.85 19C8.85 19.3333 8.91667 19.6667 9 20H2ZM9 3.25C9.21667 3.25 9.39583 3.17917 9.5375 3.0375C9.67917 2.89583 9.75 2.71667 9.75 2.5C9.75 2.28333 9.67917 2.10417 9.5375 1.9625C9.39583 1.82083 9.21667 1.75 9 1.75C8.78333 1.75 8.60417 1.82083 8.4625 1.9625C8.32083 2.10417 8.25 2.28333 8.25 2.5C8.25 2.71667 8.32083 2.89583 8.4625 3.0375C8.60417 3.17917 8.78333 3.25 9 3.25ZM4 12V10H14V11C13.8667 11.0833 14 11 13.6125 11.1375C13.4172 11.2068 13.1333 11.3667 13 11.5L12.5 12H4ZM4 16V14H10.4391C10.4391 14 10.2334 14.2474 10 14.5C9.7037 14.8207 9.5 15.5 9.5 15.5C9.5 15.5 9.31981 15.8667 9.23647 16H4Z" fill="black"/>
<path d="M3.25284 8V5.09091H3.8679V7.4929H5.11506V8H3.25284ZM8.08239 6.54545C8.08239 6.86269 8.02225 7.13258 7.90199 7.35511C7.78267 7.57765 7.61979 7.74763 7.41335 7.86506C7.20786 7.98153 6.9768 8.03977 6.72017 8.03977C6.46165 8.03977 6.22964 7.98106 6.02415 7.86364C5.81866 7.74621 5.65625 7.57623 5.53693 7.35369C5.41761 7.13116 5.35795 6.86174 5.35795 6.54545C5.35795 6.22822 5.41761 5.95833 5.53693 5.7358C5.65625 5.51326 5.81866 5.34375 6.02415 5.22727C6.22964 5.10985 6.46165 5.05114 6.72017 5.05114C6.9768 5.05114 7.20786 5.10985 7.41335 5.22727C7.61979 5.34375 7.78267 5.51326 7.90199 5.7358C8.02225 5.95833 8.08239 6.22822 8.08239 6.54545ZM7.45881 6.54545C7.45881 6.33996 7.42803 6.16667 7.36648 6.02557C7.30587 5.88447 7.22017 5.77746 7.10938 5.70455C6.99858 5.63163 6.86884 5.59517 6.72017 5.59517C6.5715 5.59517 6.44176 5.63163 6.33097 5.70455C6.22017 5.77746 6.134 5.88447 6.07244 6.02557C6.01184 6.16667 5.98153 6.33996 5.98153 6.54545C5.98153 6.75095 6.01184 6.92424 6.07244 7.06534C6.134 7.20644 6.22017 7.31345 6.33097 7.38636C6.44176 7.45928 6.5715 7.49574 6.72017 7.49574C6.86884 7.49574 6.99858 7.45928 7.10938 7.38636C7.22017 7.31345 7.30587 7.20644 7.36648 7.06534C7.42803 6.92424 7.45881 6.75095 7.45881 6.54545ZM8.87536 8H8.21626L9.22053 5.09091H10.0131L11.016 8H10.3569L9.6282 5.75568H9.60547L8.87536 8ZM8.83416 6.85653H10.391V7.33665H8.83416V6.85653ZM13.7994 5.09091V8H13.2681L12.0025 6.16903H11.9812V8H11.3661V5.09091H11.9059L13.1616 6.92045H13.1871V5.09091H13.7994Z" fill="black"/>
<path d="M10.9856 20.6139L10.2475 20.4992C10.1842 20.9066 10.4635 21.2887 10.8709 21.352L10.9856 20.6139ZM19.057 12.62L18.6484 13.2453C18.7755 13.3283 18.9248 13.3707 19.0766 13.3667C19.2284 13.3627 19.3753 13.3126 19.4979 13.223L19.057 12.62ZM20.9038 11.2699L21.5069 10.829C21.449 10.7498 21.3761 10.6828 21.2923 10.6318C21.2085 10.5808 21.1155 10.5468 21.0185 10.5317C20.9216 10.5166 20.8226 10.5208 20.7273 10.544C20.6319 10.5672 20.5421 10.6089 20.4629 10.6668L20.9038 11.2699ZM22.8987 13.9988L23.3395 14.6019C23.4188 14.544 23.4858 14.4711 23.5368 14.3873C23.5878 14.3035 23.6218 14.2105 23.6369 14.1135C23.652 14.0166 23.6478 13.9176 23.6246 13.8223C23.6014 13.727 23.5597 13.6372 23.5018 13.558L22.8987 13.9988ZM21.0519 15.3489L20.611 14.7458C20.4883 14.8354 20.3959 14.9603 20.346 15.1038C20.2962 15.2473 20.2913 15.4027 20.332 15.549L21.0519 15.3489ZM10.9815 15.7754L10.2475 20.4992L11.7237 20.7286L12.4577 16.0048L10.9815 15.7754ZM17.2921 11.1623C16.5749 11.0508 15.8427 11.0817 15.1374 11.2532C14.432 11.4247 13.7674 11.7335 13.1814 12.1619C12.5954 12.5902 12.0995 13.1298 11.7221 13.7499C11.3446 14.3699 11.093 15.0582 10.9815 15.7754L12.4577 16.0048C12.622 14.9477 13.1994 13.9992 14.063 13.3679C14.9266 12.7366 16.0057 12.4742 17.0628 12.6384L17.2921 11.1623ZM19.4656 11.9947C18.8087 11.5656 18.0676 11.2818 17.2921 11.1623L17.0628 12.6384C17.6285 12.7254 18.1691 12.9323 18.6484 13.2453L19.4656 11.9947ZM19.4979 13.223L21.3447 11.873L20.4629 10.6668L18.6161 12.0169L19.4979 13.223ZM20.3013 11.7109L22.2962 14.4398L23.5018 13.558L21.5069 10.829L20.3013 11.7109ZM22.4584 13.3958L20.611 14.7458L21.4928 15.952L23.3395 14.6019L22.4584 13.3958ZM21.9053 17.4729C22.0267 16.6977 21.9811 15.9055 21.7717 15.1493L20.332 15.549C20.4848 16.1007 20.5179 16.678 20.4291 17.2435L21.9053 17.4729ZM15.5947 22.086C17.0433 22.3111 18.522 21.9515 19.7054 21.0864C20.8889 20.2213 21.6802 18.9214 21.9053 17.4729L20.4291 17.2435C20.2649 18.3005 19.6874 19.2491 18.8238 19.8804C17.9602 20.5117 16.8812 20.7741 15.8241 20.6098L15.5947 22.086ZM10.8709 21.352L15.5947 22.086L15.8241 20.6098L11.1003 19.8758L10.8709 21.352Z" fill="black"/>
<path d="M15.2593 16.4409C15.1579 17.0931 15.6045 17.704 16.2567 17.8053C16.9089 17.9067 17.5198 17.4601 17.6212 16.8079C17.7225 16.1557 17.276 15.5448 16.6237 15.4434C15.9715 15.3421 15.3606 15.7887 15.2593 16.4409Z" fill="black"/>
<path d="M10.9844 20.6143L16.4422 16.6245" stroke="black" stroke-width="1.25" stroke-linecap="round" stroke-linejoin="round"/>
</svg>
