<svg width="22" height="21" viewBox="0 0 22 21" fill="none" xmlns="http://www.w3.org/2000/svg">
<path d="M12.1567 14.6752V15.7674C12.1567 16.6365 11.8179 17.4699 11.215 18.0844C10.6121 18.6989 9.79432 19.0441 8.94165 19.0441H4.65496C3.80228 19.0441 2.98453 18.6989 2.3816 18.0844C1.77867 17.4699 1.43994 16.6365 1.43994 15.7674V4.84507C1.43994 3.97603 1.77867 3.14259 2.3816 2.52809C2.98453 1.91358 3.80228 1.56836 4.65496 1.56836H8.94165C9.79432 1.56836 10.6121 1.91358 11.215 2.52809C11.8179 3.14259 12.1567 3.97603 12.1567 4.84507V5.93731M16.4434 14.6752L20.73 10.3063L16.4434 14.6752ZM20.73 10.3063L16.4434 5.93731L20.73 10.3063ZM20.73 10.3063H5.72663H20.73Z" stroke="#253D4E" stroke-width="2" stroke-linecap="round" stroke-linejoin="round"/>
</svg>
