<svg width="32" height="31" viewBox="0 0 32 31" fill="none" xmlns="http://www.w3.org/2000/svg">
<path d="M5.5 27.582H8.88988C10.4048 27.582 11.9393 27.741 13.4137 28.0439C16.0461 28.5847 18.7547 28.6447 21.4084 28.2209C22.7104 28.0109 23.9883 27.6885 25.1463 27.1305C26.1902 26.625 27.4697 25.9155 28.3292 25.1191C29.1871 24.3241 30.0811 23.0236 30.7141 22.0067C31.2601 21.1337 30.9961 20.0642 30.1351 19.4148C29.6513 19.0628 29.0684 18.8733 28.4702 18.8733C27.8719 18.8733 27.289 19.0628 26.8052 19.4148L24.0948 21.4622C23.0449 22.2572 21.8974 22.9876 20.531 23.2051C20.366 23.2306 20.1935 23.2546 20.0135 23.2756M20.0135 23.2756C19.9585 23.282 19.9035 23.288 19.8485 23.2936M20.0135 23.2756C20.2536 23.2107 20.4737 23.087 20.654 22.9156C20.88 22.7201 21.0645 22.4813 21.1968 22.2132C21.329 21.9452 21.4062 21.6534 21.4238 21.3551C21.4414 21.0567 21.3991 20.7579 21.2993 20.4761C21.1996 20.1944 21.0444 19.9355 20.8429 19.7147C20.6475 19.4978 20.4198 19.3121 20.168 19.1643C15.9726 16.6609 9.44336 18.5673 5.5 21.3647M20.0135 23.2756C19.9593 23.2874 19.904 23.2935 19.8485 23.2936M19.8485 23.2936C18.9439 23.3845 18.0326 23.3865 17.1276 23.2996" stroke="black" stroke-width="2" stroke-linecap="round"/>
<path d="M5.49984 20.2499C5.49984 19.0073 4.49251 18 3.24992 18C2.00732 18 1 19.0073 1 20.2499V27.7496C1 28.9922 2.00732 29.9996 3.24992 29.9996C4.49251 29.9996 5.49984 28.9922 5.49984 27.7496V20.2499Z" stroke="black" stroke-width="2"/>
<path d="M17.821 0V2.02779C18.791 2.31062 19.6647 2.81045 20.3799 3.47393L22.18 2.46003L24 5.53907L22.1982 6.55653C22.4289 7.50564 22.4289 8.49436 22.1982 9.44347L24 10.4591L22.18 13.54L20.3745 12.5225C19.6505 13.1916 18.7758 13.6851 17.821 13.9633V16H14.1809V13.9633C13.2254 13.6853 12.3501 13.1918 11.6255 12.5225L9.82004 13.54L8 10.4591L9.80184 9.44169C9.57102 8.4932 9.57102 7.50502 9.80184 6.55653L8 5.54086L9.82004 2.46003L11.6219 3.47393C12.3469 2.80229 13.2236 2.30689 14.1809 2.02779V0H17.821ZM16.0009 5.3274C15.2769 5.3274 14.5824 5.60851 14.0705 6.10889C13.5585 6.60926 13.2708 7.28792 13.2708 7.99555C13.2708 8.70319 13.5585 9.38184 14.0705 9.88222C14.5824 10.3826 15.2769 10.6637 16.0009 10.6637C16.725 10.6637 17.4194 10.3826 17.9314 9.88222C18.4433 9.38184 18.731 8.70319 18.731 7.99555C18.731 7.28792 18.4433 6.60926 17.9314 6.10889C17.4194 5.60851 16.725 5.3274 16.0009 5.3274Z" fill="black"/>
</svg>
