<svg width="17" height="19" viewBox="0 0 17 19" fill="none" xmlns="http://www.w3.org/2000/svg">
<path d="M16.5 9.5C16.5006 9.74811 16.4373 9.99215 16.3162 10.2084C16.1951 10.4246 16.0204 10.6057 15.8091 10.734L2.71091 18.7849C2.49008 18.9208 2.23715 18.9949 1.97825 18.9997C1.71935 19.0046 1.46387 18.9399 1.23818 18.8123C1.01465 18.6867 0.828433 18.5036 0.698694 18.2817C0.568956 18.0599 0.500374 17.8073 0.5 17.55V1.45005C0.500374 1.19273 0.568956 0.940147 0.698694 0.718285C0.828433 0.496422 1.01465 0.313285 1.23818 0.187707C1.46387 0.0601464 1.71935 -0.00456666 1.97825 0.000250593C2.23715 0.00506785 2.49008 0.0792409 2.71091 0.215109L15.8091 8.26597C16.0204 8.39428 16.1951 8.57536 16.3162 8.79161C16.4373 9.00785 16.5006 9.25189 16.5 9.5Z" fill="#5C9E31"/>
</svg>
