<svg width="34" height="28" viewBox="0 0 34 28" fill="none" xmlns="http://www.w3.org/2000/svg">
<path d="M30.0448 27.2148H31.466C32.4485 27.2148 33.0107 26.6287 33.0107 25.6649V1H3.35156V8.7279" fill="white"/>
<path d="M30.1044 27.2148H31.4989C32.4633 27.2148 33.0145 26.6287 33.0145 25.6649V1H3.91406V10.4018" fill="white"/>
<path d="M30.1044 27.2148H31.4989C32.4633 27.2148 33.0145 26.6287 33.0145 25.6649V1H3.91406" fill="white"/>
<path d="M1 3.93457H30.1004V27.2149H1V3.93457Z" fill="white"/>
<path d="M30.1044 27.2148H31.4989C32.4633 27.2148 33.0145 26.6287 33.0145 25.6649V1H3.91406" stroke="black" stroke-miterlimit="10" stroke-linecap="round" stroke-linejoin="round"/>
<path d="M1 3.93457H30.1004V27.2149H1V3.93457Z" stroke="black" stroke-miterlimit="10" stroke-linecap="round" stroke-linejoin="round"/>
<path d="M4.49219 7.98438H27.7725M19.373 11.5422H27.7725M19.373 15.2478H27.7725M19.373 18.9535H27.7725M19.373 22.6591H27.7725M4.49219 10.9602H16.1347V22.6027H4.49219V10.9602Z" stroke="black" stroke-miterlimit="10" stroke-linecap="round" stroke-linejoin="round"/>
</svg>
