<svg width="23" height="20" viewBox="0 0 23 20" fill="none" xmlns="http://www.w3.org/2000/svg">
<path d="M3.25 17.7911H4.94499C5.70249 17.7911 6.46974 17.8706 7.20699 18.0221C8.52323 18.2925 9.87755 18.3225 11.2045 18.1106C11.8555 18.0056 12.4945 17.8444 13.0735 17.5654C13.5955 17.3126 14.2352 16.9579 14.665 16.5596C15.094 16.1621 15.541 15.5119 15.8575 15.0034C16.1305 14.5669 15.9985 14.0322 15.568 13.7074C15.326 13.5314 15.0346 13.4367 14.7355 13.4367C14.4363 13.4367 14.1449 13.5314 13.903 13.7074L12.5477 14.7312C12.0227 15.1286 11.449 15.4939 10.7657 15.6026C10.6832 15.6154 10.597 15.6274 10.507 15.6379M10.507 15.6379C10.4795 15.6411 10.452 15.6441 10.4245 15.6469M10.507 15.6379C10.627 15.6054 10.7371 15.5436 10.8272 15.4579C10.9402 15.3601 11.0325 15.2407 11.0986 15.1067C11.1648 14.9727 11.2034 14.8268 11.2122 14.6776C11.221 14.5284 11.1998 14.379 11.1499 14.2381C11.1 14.0972 11.0224 13.9678 10.9217 13.8574C10.824 13.7489 10.7102 13.6561 10.5842 13.5822C8.48648 12.3304 5.22174 13.2837 3.25 14.6824M10.507 15.6379C10.4799 15.6438 10.4522 15.6468 10.4245 15.6469M10.4245 15.6469C9.97216 15.6924 9.51649 15.6934 9.06398 15.6499" stroke="black" stroke-width="0.75" stroke-linecap="round"/>
<path d="M3.24999 14.125C3.24999 13.5037 2.74631 13 2.125 13C1.50368 13 1 13.5037 1 14.125V17.875C1 18.4963 1.50368 19 2.125 19C2.74631 19 3.24999 18.4963 3.24999 17.875V14.125Z" stroke="black" stroke-width="0.75"/>
<path d="M20.25 2.20908L18.5551 2.20908C17.7976 2.20908 17.0304 2.12959 16.2932 1.97809C14.977 1.7077 13.6228 1.67772 12.2959 1.8896C11.6449 1.99459 11.006 2.15583 10.427 2.43482C9.90501 2.68756 9.26529 3.04229 8.83556 3.44052C8.40659 3.838 7.95961 4.48822 7.64312 4.99669C7.37014 5.43317 7.50213 5.9679 7.93261 6.29263C8.17451 6.46859 8.46594 6.56337 8.76507 6.56337C9.06419 6.56337 9.35563 6.46859 9.59753 6.29263L10.9527 5.26893C11.4777 4.87145 12.0514 4.50622 12.7346 4.39747C12.8171 4.38472 12.9034 4.37272 12.9934 4.36222M12.9934 4.36222C13.0208 4.35904 13.0483 4.35604 13.0759 4.35323M12.9934 4.36222C12.8733 4.39469 12.7633 4.45655 12.6731 4.54222C12.5601 4.63998 12.4678 4.7594 12.4017 4.89341C12.3356 5.02742 12.297 5.17332 12.2882 5.32249C12.2794 5.47166 12.3006 5.62109 12.3504 5.76195C12.4003 5.90281 12.4779 6.03225 12.5786 6.14264C12.6764 6.25113 12.7902 6.34396 12.9161 6.41787C15.0138 7.66956 18.2783 6.71636 20.25 5.31768M12.9934 4.36222C13.0205 4.35632 13.0481 4.35331 13.0759 4.35323M13.0759 4.35323C13.5281 4.30777 13.9838 4.30677 14.4363 4.35022" stroke="black" stroke-width="0.75" stroke-linecap="round"/>
<path d="M20.2501 5.87506C20.2501 6.49635 20.7538 7 21.3751 7C21.9963 7 22.5 6.49635 22.5 5.87506L22.5 2.12524C22.5 1.50395 21.9963 1.0003 21.3751 1.0003C20.7538 1.0003 20.2501 1.50395 20.2501 2.12524L20.2501 5.87506Z" stroke="black" stroke-width="0.75"/>
<path d="M9.30542 8.92857C9.18205 8.68314 9.14006 8.4037 9.18476 8.12561C9.22945 7.84752 9.35882 7.58325 9.55651 7.36624C9.7542 7.14922 10.0113 6.9892 10.2954 6.90641C10.5794 6.82363 10.8776 6.82179 11.1523 6.90113C11.427 6.98047 11.6657 7.13743 11.8384 7.35216C12.0111 7.56689 12.11 7.82974 12.1226 8.10748C12.1351 8.38522 12.0607 8.66538 11.9089 8.91251C11.757 9.15965 11.5345 9.36267 11.2694 9.4959C10.9139 9.67456 10.5073 9.71516 10.139 9.60876C9.77069 9.50237 9.47084 9.2577 9.30542 8.92857ZM7.62292 12.2614L5.62698 8.29031C5.5939 8.22448 5.59041 8.14716 5.61728 8.07535C5.64415 8.00354 5.69919 7.94312 5.77028 7.90739L13.2756 4.13506C13.3467 4.09933 13.428 4.09121 13.5017 4.11249C13.5753 4.13377 13.6353 4.1827 13.6684 4.24852L15.6643 8.21958C15.6974 8.28541 15.7009 8.36273 15.674 8.43454C15.6471 8.50635 15.5921 8.56677 15.521 8.6025L8.01572 12.3748C7.94463 12.4106 7.8633 12.4187 7.78964 12.3974C7.71598 12.3761 7.65601 12.3272 7.62292 12.2614ZM7.43627 10.554C7.78251 10.4843 8.13618 10.4976 8.46506 10.5926C8.79394 10.6876 9.08757 10.8613 9.31922 11.0979L13.7185 8.88669C13.6669 8.55963 13.7027 8.22035 13.8227 7.89974C13.9426 7.57913 14.143 7.28739 14.4055 7.05108L13.855 5.95593C13.5088 6.02559 13.1551 6.01231 12.8262 5.9173C12.4974 5.8223 12.2037 5.6486 11.9721 5.41201L7.57277 7.6232C7.62442 7.95026 7.58863 8.28954 7.46865 8.61015C7.34866 8.93076 7.14831 9.2225 6.88582 9.45881L7.43627 10.554Z" fill="black"/>
</svg>
