<svg width="27" height="26" viewBox="0 0 27 26" fill="none" xmlns="http://www.w3.org/2000/svg">
<path d="M17.8333 8.66667H3.38889V2.88889H17.8333M13.5 23.1111C12.3507 23.1111 11.2485 22.6546 10.4359 21.8419C9.62321 21.0292 9.16667 19.927 9.16667 18.7778C9.16667 17.6285 9.62321 16.5263 10.4359 15.7136C11.2485 14.901 12.3507 14.4444 13.5 14.4444C14.6493 14.4444 15.7515 14.901 16.5641 15.7136C17.3768 16.5263 17.8333 17.6285 17.8333 18.7778C17.8333 19.927 17.3768 21.0292 16.5641 21.8419C15.7515 22.6546 14.6493 23.1111 13.5 23.1111ZM20.7222 0H3.38889C2.62271 0 1.88791 0.304364 1.34614 0.846136C0.804364 1.38791 0.5 2.12271 0.5 2.88889V23.1111C0.5 23.8773 0.804364 24.6121 1.34614 25.1539C1.88791 25.6956 2.62271 26 3.38889 26H23.6111C24.3773 26 25.1121 25.6956 25.6539 25.1539C26.1956 24.6121 26.5 23.8773 26.5 23.1111V5.77778L20.7222 0Z" fill="black"/>
</svg>
