<svg width="22" height="22" viewBox="0 0 22 22" fill="none" xmlns="http://www.w3.org/2000/svg">
<mask id="path-1-inside-1_42_3967" fill="white">
<path d="M13.2349 0C13.4056 5.242e-06 13.5718 0.052806 13.7098 0.150798C13.8477 0.24879 13.9502 0.386917 14.0024 0.545286L14.8892 3.23086C15.2617 3.40843 15.6181 3.608 15.9583 3.83271L18.7898 3.23871C18.9567 3.20398 19.1307 3.22178 19.2866 3.28956C19.4425 3.35733 19.5723 3.47159 19.6573 3.61586L21.8922 7.38571C21.9775 7.5299 22.0136 7.69678 21.9954 7.86228C21.9771 8.02778 21.9054 8.18336 21.7906 8.30657L19.8476 10.3966C19.8758 10.7973 19.8758 11.1995 19.8476 11.6003L21.7906 13.6934C21.9054 13.8166 21.9771 13.9722 21.9954 14.1377C22.0136 14.3032 21.9775 14.4701 21.8922 14.6143L19.6573 18.3857C19.572 18.5297 19.4421 18.6436 19.2863 18.7111C19.1304 18.7786 18.9566 18.7962 18.7898 18.7613L15.9583 18.1673C15.6197 18.3904 15.2617 18.5916 14.8909 18.7691L14.0024 21.4547C13.9502 21.6131 13.8477 21.7512 13.7098 21.8492C13.5718 21.9472 13.4056 22 13.2349 22H8.76513C8.59444 22 8.42816 21.9472 8.29023 21.8492C8.1523 21.7512 8.04984 21.6131 7.9976 21.4547L7.11237 18.7707C6.74089 18.5937 6.38258 18.3915 6.04008 18.1657L3.21022 18.7613C3.04327 18.796 2.86932 18.7782 2.71342 18.7104C2.55752 18.6427 2.42772 18.5284 2.34272 18.3841L0.10785 14.6143C0.0225101 14.4701 -0.0136373 14.3032 0.00462008 14.1377C0.0228775 13.9722 0.0945961 13.8166 0.209435 13.6934L2.15245 11.6003C2.1243 11.2006 2.1243 10.7994 2.15245 10.3997L0.209435 8.30657C0.0945961 8.18336 0.0228775 8.02778 0.00462008 7.86228C-0.0136373 7.69678 0.0225101 7.5299 0.10785 7.38571L2.34272 3.61429C2.42796 3.4703 2.55786 3.35637 2.71374 3.28889C2.86962 3.2214 3.04345 3.20384 3.21022 3.23871L6.04008 3.83429C6.38192 3.60957 6.73989 3.40686 7.11237 3.22929L7.99922 0.545286C8.05128 0.387427 8.15325 0.249666 8.29053 0.151721C8.42782 0.0537765 8.59338 0.000668906 8.76352 0H13.2333H13.2349ZM12.6447 1.57143H9.35529L8.43942 4.34814L7.82185 4.642C7.51825 4.78679 7.22517 4.95165 6.94467 5.13543L6.37386 5.51257L3.44564 4.89657L1.80093 7.67486L3.80844 9.84029L3.76007 10.5066C3.7369 10.8351 3.7369 11.1649 3.76007 11.4934L3.80844 12.1597L1.79771 14.3251L3.44402 17.1034L6.37225 16.489L6.94306 16.8646C7.22356 17.0484 7.51664 17.2132 7.82023 17.358L8.4378 17.6519L9.35529 20.4286H12.6479L13.567 17.6503L14.183 17.358C14.4863 17.2136 14.7788 17.0487 15.0586 16.8646L15.6278 16.489L18.5576 17.1034L20.2023 14.3251L18.1932 12.1597L18.2415 11.4934C18.2648 11.1643 18.2648 10.8341 18.2415 10.505L18.1932 9.83871L20.2039 7.67486L18.5576 4.89657L15.6278 5.50943L15.0586 5.13543C14.7789 4.95128 14.4863 4.7864 14.183 4.642L13.567 4.34971L12.6463 1.57143H12.6447ZM11 6.28571C12.283 6.28571 13.5134 6.7824 14.4205 7.6665C15.3277 8.5506 15.8374 9.74969 15.8374 11C15.8374 12.2503 15.3277 13.4494 14.4205 14.3335C13.5134 15.2176 12.283 15.7143 11 15.7143C9.71705 15.7143 8.48664 15.2176 7.57946 14.3335C6.67228 13.4494 6.16263 12.2503 6.16263 11C6.16263 9.74969 6.67228 8.5506 7.57946 7.6665C8.48664 6.7824 9.71705 6.28571 11 6.28571ZM11 7.85714C10.1447 7.85714 9.32443 8.18826 8.71964 8.77766C8.11485 9.36706 7.77508 10.1665 7.77508 11C7.77508 11.8335 8.11485 12.6329 8.71964 13.2223C9.32443 13.8117 10.1447 14.1429 11 14.1429C11.8553 14.1429 12.6756 13.8117 13.2804 13.2223C13.8851 12.6329 14.2249 11.8335 14.2249 11C14.2249 10.1665 13.8851 9.36706 13.2804 8.77766C12.6756 8.18826 11.8553 7.85714 11 7.85714Z"/>
</mask>
<path d="M13.2349 0C13.4056 5.242e-06 13.5718 0.052806 13.7098 0.150798C13.8477 0.24879 13.9502 0.386917 14.0024 0.545286L14.8892 3.23086C15.2617 3.40843 15.6181 3.608 15.9583 3.83271L18.7898 3.23871C18.9567 3.20398 19.1307 3.22178 19.2866 3.28956C19.4425 3.35733 19.5723 3.47159 19.6573 3.61586L21.8922 7.38571C21.9775 7.5299 22.0136 7.69678 21.9954 7.86228C21.9771 8.02778 21.9054 8.18336 21.7906 8.30657L19.8476 10.3966C19.8758 10.7973 19.8758 11.1995 19.8476 11.6003L21.7906 13.6934C21.9054 13.8166 21.9771 13.9722 21.9954 14.1377C22.0136 14.3032 21.9775 14.4701 21.8922 14.6143L19.6573 18.3857C19.572 18.5297 19.4421 18.6436 19.2863 18.7111C19.1304 18.7786 18.9566 18.7962 18.7898 18.7613L15.9583 18.1673C15.6197 18.3904 15.2617 18.5916 14.8909 18.7691L14.0024 21.4547C13.9502 21.6131 13.8477 21.7512 13.7098 21.8492C13.5718 21.9472 13.4056 22 13.2349 22H8.76513C8.59444 22 8.42816 21.9472 8.29023 21.8492C8.1523 21.7512 8.04984 21.6131 7.9976 21.4547L7.11237 18.7707C6.74089 18.5937 6.38258 18.3915 6.04008 18.1657L3.21022 18.7613C3.04327 18.796 2.86932 18.7782 2.71342 18.7104C2.55752 18.6427 2.42772 18.5284 2.34272 18.3841L0.10785 14.6143C0.0225101 14.4701 -0.0136373 14.3032 0.00462008 14.1377C0.0228775 13.9722 0.0945961 13.8166 0.209435 13.6934L2.15245 11.6003C2.1243 11.2006 2.1243 10.7994 2.15245 10.3997L0.209435 8.30657C0.0945961 8.18336 0.0228775 8.02778 0.00462008 7.86228C-0.0136373 7.69678 0.0225101 7.5299 0.10785 7.38571L2.34272 3.61429C2.42796 3.4703 2.55786 3.35637 2.71374 3.28889C2.86962 3.2214 3.04345 3.20384 3.21022 3.23871L6.04008 3.83429C6.38192 3.60957 6.73989 3.40686 7.11237 3.22929L7.99922 0.545286C8.05128 0.387427 8.15325 0.249666 8.29053 0.151721C8.42782 0.0537765 8.59338 0.000668906 8.76352 0H13.2333H13.2349ZM12.6447 1.57143H9.35529L8.43942 4.34814L7.82185 4.642C7.51825 4.78679 7.22517 4.95165 6.94467 5.13543L6.37386 5.51257L3.44564 4.89657L1.80093 7.67486L3.80844 9.84029L3.76007 10.5066C3.7369 10.8351 3.7369 11.1649 3.76007 11.4934L3.80844 12.1597L1.79771 14.3251L3.44402 17.1034L6.37225 16.489L6.94306 16.8646C7.22356 17.0484 7.51664 17.2132 7.82023 17.358L8.4378 17.6519L9.35529 20.4286H12.6479L13.567 17.6503L14.183 17.358C14.4863 17.2136 14.7788 17.0487 15.0586 16.8646L15.6278 16.489L18.5576 17.1034L20.2023 14.3251L18.1932 12.1597L18.2415 11.4934C18.2648 11.1643 18.2648 10.8341 18.2415 10.505L18.1932 9.83871L20.2039 7.67486L18.5576 4.89657L15.6278 5.50943L15.0586 5.13543C14.7789 4.95128 14.4863 4.7864 14.183 4.642L13.567 4.34971L12.6463 1.57143H12.6447ZM11 6.28571C12.283 6.28571 13.5134 6.7824 14.4205 7.6665C15.3277 8.5506 15.8374 9.74969 15.8374 11C15.8374 12.2503 15.3277 13.4494 14.4205 14.3335C13.5134 15.2176 12.283 15.7143 11 15.7143C9.71705 15.7143 8.48664 15.2176 7.57946 14.3335C6.67228 13.4494 6.16263 12.2503 6.16263 11C6.16263 9.74969 6.67228 8.5506 7.57946 7.6665C8.48664 6.7824 9.71705 6.28571 11 6.28571ZM11 7.85714C10.1447 7.85714 9.32443 8.18826 8.71964 8.77766C8.11485 9.36706 7.77508 10.1665 7.77508 11C7.77508 11.8335 8.11485 12.6329 8.71964 13.2223C9.32443 13.8117 10.1447 14.1429 11 14.1429C11.8553 14.1429 12.6756 13.8117 13.2804 13.2223C13.8851 12.6329 14.2249 11.8335 14.2249 11C14.2249 10.1665 13.8851 9.36706 13.2804 8.77766C12.6756 8.18826 11.8553 7.85714 11 7.85714Z" fill="black" stroke="black" stroke-width="2" mask="url(#path-1-inside-1_42_3967)"/>
</svg>
