<svg width="20" height="20" viewBox="0 0 20 20" fill="none" xmlns="http://www.w3.org/2000/svg">
<path d="M17.3333 9.69727C17.75 9.96419 18.1215 10.2669 18.4479 10.6055C18.7743 10.944 19.0556 11.3151 19.2917 11.7188C19.5278 12.1224 19.7014 12.5488 19.8125 12.998C19.9236 13.4473 19.9861 13.9062 20 14.375C20 15.1497 19.8438 15.8789 19.5312 16.5625C19.2188 17.2461 18.7882 17.8418 18.2396 18.3496C17.691 18.8574 17.0556 19.2578 16.3333 19.5508C15.6111 19.8438 14.8333 19.9935 14 20C13.3681 20 12.7569 19.9121 12.1667 19.7363C11.5764 19.5605 11.0347 19.3066 10.5417 18.9746C10.0486 18.6426 9.61111 18.2454 9.22917 17.7832C8.84722 17.321 8.55208 16.8099 8.34375 16.25H0V1.25H2.66667V0H4V1.25H13.3333V0H14.6667V1.25H17.3333V9.69727ZM1.33333 2.5V5H16V2.5H14.6667V3.75H13.3333V2.5H4V3.75H2.66667V2.5H1.33333ZM8.03125 15C8.01042 14.7982 8 14.5898 8 14.375C8 13.6003 8.15625 12.8711 8.46875 12.1875C8.78125 11.5039 9.21181 10.9082 9.76042 10.4004C10.309 9.89258 10.9444 9.49219 11.6667 9.19922C12.3889 8.90625 13.1667 8.75651 14 8.75C14.6944 8.75 15.3611 8.85742 16 9.07227V6.25H1.33333V15H8.03125ZM14 18.75C14.6458 18.75 15.25 18.6361 15.8125 18.4082C16.375 18.1803 16.8681 17.8678 17.2917 17.4707C17.7153 17.0736 18.0486 16.6113 18.2917 16.084C18.5347 15.5566 18.6597 14.987 18.6667 14.375C18.6667 13.7695 18.5451 13.2031 18.3021 12.6758C18.059 12.1484 17.7257 11.6862 17.3021 11.2891C16.8785 10.8919 16.3854 10.5794 15.8229 10.3516C15.2604 10.1237 14.6528 10.0065 14 10C13.3542 10 12.75 10.1139 12.1875 10.3418C11.625 10.5697 11.1319 10.8822 10.7083 11.2793C10.2847 11.6764 9.95139 12.1387 9.70833 12.666C9.46528 13.1934 9.34028 13.763 9.33333 14.375C9.33333 14.9805 9.45486 15.5469 9.69792 16.0742C9.94097 16.6016 10.2743 17.0638 10.6979 17.4609C11.1215 17.8581 11.6146 18.1706 12.1771 18.3984C12.7396 18.6263 13.3472 18.7435 14 18.75ZM14.6667 13.75H16.6667V15H13.3333V11.25H14.6667V13.75Z" fill="black"/>
</svg>
