<svg width="18" height="22" viewBox="0 0 18 22" fill="none" xmlns="http://www.w3.org/2000/svg">
<path d="M7.14615 1.36516C7.29556 0.961812 7.55185 0.616387 7.88217 0.373163C8.21249 0.12994 8.60178 0 9.00015 0C9.39852 0 9.78781 0.12994 10.1181 0.373163C10.4484 0.616387 10.7047 0.961812 10.8541 1.36516C12.3329 1.80936 13.6373 2.77148 14.5669 4.10377C15.4966 5.43605 16.0001 7.06483 16.0002 8.73994V13.8702L17.8322 16.8716C17.9326 17.0361 17.9903 17.2273 17.9991 17.4248C18.0079 17.6224 17.9674 17.8188 17.882 17.9931C17.7966 18.1675 17.6695 18.3132 17.5142 18.4148C17.3588 18.5165 17.1812 18.5701 17.0002 18.5701H12.4651C12.3447 19.48 11.9282 20.3121 11.2919 20.9139C10.6555 21.5158 9.84191 21.847 9.00015 21.847C8.15839 21.847 7.34481 21.5158 6.70845 20.9139C6.07209 20.3121 5.65555 19.48 5.53515 18.5701H1.00015C0.819107 18.5701 0.641453 18.5165 0.486141 18.4148C0.330829 18.3132 0.203685 18.1675 0.118276 17.9931C0.032866 17.8188 -0.00760575 17.6224 0.00117785 17.4248C0.00996145 17.2273 0.067671 17.0361 0.16815 16.8716L2.00015 13.8702V8.73994C2.00015 5.21857 4.18015 2.25206 7.14615 1.36516ZM7.58615 18.5701C7.68943 18.8897 7.88093 19.1665 8.13427 19.3623C8.38761 19.5581 8.69031 19.6632 9.00065 19.6632C9.31099 19.6632 9.61369 19.5581 9.86703 19.3623C10.1204 19.1665 10.3119 18.8897 10.4151 18.5701H7.58515H7.58615ZM9.00015 3.27876C7.67407 3.27876 6.4023 3.85413 5.46462 4.8783C4.52693 5.90247 4.00015 7.29155 4.00015 8.73994V14.2011C4.00019 14.4169 3.94174 14.6278 3.83215 14.8073L2.86915 16.3856H15.1301L14.1671 14.8073C14.0579 14.6277 13.9998 14.4168 14.0001 14.2011V8.73994C14.0001 7.29155 13.4734 5.90247 12.5357 4.8783C11.598 3.85413 10.3262 3.27876 9.00015 3.27876Z" fill="#4D4949"/>
</svg>
