<svg width="26" height="26" viewBox="0 0 26 26" fill="none" xmlns="http://www.w3.org/2000/svg">
<rect x="0.517441" y="0.5" width="24.1149" height="25" rx="2.5" stroke="#DD0000"/>
<path d="M8.95255 20C8.55409 20 8.21287 19.8476 7.92888 19.5427C7.64488 19.2378 7.50313 18.8717 7.50361 18.4444V8.33333H6.77914V6.77778H10.4015V6H14.7483V6.77778H18.3706V8.33333H17.6462V18.4444C17.6462 18.8722 17.5042 19.2386 17.2202 19.5434C16.9362 19.8483 16.5952 20.0005 16.1972 20H8.95255ZM16.1972 8.33333H8.95255V18.4444H16.1972V8.33333ZM10.4015 16.8889H11.8504V9.88889H10.4015V16.8889ZM13.2994 16.8889H14.7483V9.88889H13.2994V16.8889Z" fill="#DA0000"/>
</svg>
