<svg width="18" height="18" viewBox="0 0 18 18" fill="none" xmlns="http://www.w3.org/2000/svg">
<path fill-rule="evenodd" clip-rule="evenodd" d="M4 1H1V4H4V1ZM1 0C0.734784 0 0.48043 0.105357 0.292893 0.292893C0.105357 0.48043 0 0.734784 0 1V4C0 4.26522 0.105357 4.51957 0.292893 4.70711C0.48043 4.89464 0.734784 5 1 5H4C4.26522 5 4.51957 4.89464 4.70711 4.70711C4.89464 4.51957 5 4.26522 5 4V1C5 0.734784 4.89464 0.48043 4.70711 0.292893C4.51957 0.105357 4.26522 0 4 0H1ZM4 7.5H1V10.5H4V7.5ZM1 6.5C0.734784 6.5 0.48043 6.60536 0.292893 6.79289C0.105357 6.98043 0 7.23478 0 7.5V10.5C0 10.7652 0.105357 11.0196 0.292893 11.2071C0.48043 11.3946 0.734784 11.5 1 11.5H4C4.26522 11.5 4.51957 11.3946 4.70711 11.2071C4.89464 11.0196 5 10.7652 5 10.5V7.5C5 7.23478 4.89464 6.98043 4.70711 6.79289C4.51957 6.60536 4.26522 6.5 4 6.5H1ZM4 14H1V17H4V14ZM1 13C0.734784 13 0.48043 13.1054 0.292893 13.2929C0.105357 13.4804 0 13.7348 0 14V17C0 17.2652 0.105357 17.5196 0.292893 17.7071C0.48043 17.8946 0.734784 18 1 18H4C4.26522 18 4.51957 17.8946 4.70711 17.7071C4.89464 17.5196 5 17.2652 5 17V14C5 13.7348 4.89464 13.4804 4.70711 13.2929C4.51957 13.1054 4.26522 13 4 13H1ZM10.5 1H7.5V4H10.5V1ZM7.5 0C7.23478 0 6.98043 0.105357 6.79289 0.292893C6.60536 0.48043 6.5 0.734784 6.5 1V4C6.5 4.26522 6.60536 4.51957 6.79289 4.70711C6.98043 4.89464 7.23478 5 7.5 5H10.5C10.7652 5 11.0196 4.89464 11.2071 4.70711C11.3946 4.51957 11.5 4.26522 11.5 4V1C11.5 0.734784 11.3946 0.48043 11.2071 0.292893C11.0196 0.105357 10.7652 0 10.5 0H7.5ZM10.5 7.5H7.5V10.5H10.5V7.5ZM7.5 6.5C7.23478 6.5 6.98043 6.60536 6.79289 6.79289C6.60536 6.98043 6.5 7.23478 6.5 7.5V10.5C6.5 10.7652 6.60536 11.0196 6.79289 11.2071C6.98043 11.3946 7.23478 11.5 7.5 11.5H10.5C10.7652 11.5 11.0196 11.3946 11.2071 11.2071C11.3946 11.0196 11.5 10.7652 11.5 10.5V7.5C11.5 7.23478 11.3946 6.98043 11.2071 6.79289C11.0196 6.60536 10.7652 6.5 10.5 6.5H7.5ZM10.5 14H7.5V17H10.5V14ZM7.5 13C7.23478 13 6.98043 13.1054 6.79289 13.2929C6.60536 13.4804 6.5 13.7348 6.5 14V17C6.5 17.2652 6.60536 17.5196 6.79289 17.7071C6.98043 17.8946 7.23478 18 7.5 18H10.5C10.7652 18 11.0196 17.8946 11.2071 17.7071C11.3946 17.5196 11.5 17.2652 11.5 17V14C11.5 13.7348 11.3946 13.4804 11.2071 13.2929C11.0196 13.1054 10.7652 13 10.5 13H7.5ZM17 1H14V4H17V1ZM14 0C13.7348 0 13.4804 0.105357 13.2929 0.292893C13.1054 0.48043 13 0.734784 13 1V4C13 4.26522 13.1054 4.51957 13.2929 4.70711C13.4804 4.89464 13.7348 5 14 5H17C17.2652 5 17.5196 4.89464 17.7071 4.70711C17.8946 4.51957 18 4.26522 18 4V1C18 0.734784 17.8946 0.48043 17.7071 0.292893C17.5196 0.105357 17.2652 0 17 0H14ZM17 7.5H14V10.5H17V7.5ZM14 6.5C13.7348 6.5 13.4804 6.60536 13.2929 6.79289C13.1054 6.98043 13 7.23478 13 7.5V10.5C13 10.7652 13.1054 11.0196 13.2929 11.2071C13.4804 11.3946 13.7348 11.5 14 11.5H17C17.2652 11.5 17.5196 11.3946 17.7071 11.2071C17.8946 11.0196 18 10.7652 18 10.5V7.5C18 7.23478 17.8946 6.98043 17.7071 6.79289C17.5196 6.60536 17.2652 6.5 17 6.5H14ZM17 14H14V17H17V14ZM14 13C13.7348 13 13.4804 13.1054 13.2929 13.2929C13.1054 13.4804 13 13.7348 13 14V17C13 17.2652 13.1054 17.5196 13.2929 17.7071C13.4804 17.8946 13.7348 18 14 18H17C17.2652 18 17.5196 17.8946 17.7071 17.7071C17.8946 17.5196 18 17.2652 18 17V14C18 13.7348 17.8946 13.4804 17.7071 13.2929C17.5196 13.1054 17.2652 13 17 13H14Z" fill="#070707"/>
</svg>
